<svg width="728" height="651" viewBox="0 0 728 651" fill="none" xmlns="http://www.w3.org/2000/svg">
  <mask id="mask0_272_35" style="mask-type:luminance" maskUnits="userSpaceOnUse" x="178" y="611" width="67" height="39">
    <path
      d="M211.996 649.191c18.228 0 33.004-8.532 33.004-19.057 0-10.525-14.776-19.057-33.004-19.057-18.227 0-33.004 8.532-33.004 19.057 0 10.525 14.777 19.057 33.004 19.057z"
      fill="#fff" />
  </mask>
  <g mask="url(#mask0_272_35)" fill="#002102">
    <path
      d="M241.638 592.001l-81.339 46.963.679 1.176 81.339-46.963-.679-1.176zm3.761 1.905l-81.339 46.973.679 1.176 81.339-46.973-.679-1.176zm3.371 2.196l-81.339 46.972.679 1.176 81.339-46.972-.679-1.176zm3.723 1.928l-81.33 46.972.679 1.176 81.33-46.972-.679-1.176zm3.203 2.192l-81.34 46.972.68 1.176 81.339-46.972-.679-1.176zm3.73 1.925l-81.34 46.973.679 1.175 81.34-46.972-.679-1.176zm3.39 2.186l-81.339 46.972.679 1.176 81.339-46.972-.679-1.176zm3.745 1.89l-81.339 46.963.679 1.176 81.339-46.963-.679-1.176zm3.405 2.096l-81.34 46.972.679 1.176 81.34-46.972-.679-1.176zm3.796 1.972l-81.339 46.972.679 1.176 81.34-46.972-.68-1.176zm3.324 2.166l-81.34 46.963.679 1.176 81.34-46.963-.679-1.176zm3.841 1.966l-81.34 46.972.679 1.176 81.34-46.972-.679-1.176zm3.126 2.112l-81.34 46.972.679 1.176 81.34-46.972-.679-1.176zm3.725 1.977l-81.34 46.972.68 1.176 81.339-46.972-.679-1.176zm3.391 2.188l-81.34 46.972.679 1.176 81.34-46.972-.679-1.176zm3.793 1.933l-81.34 46.973.679 1.176 81.34-46.973-.679-1.176zm3.318 2.127l-81.34 46.963.679 1.176 81.34-46.963-.679-1.176zm-71.077-40.859l-81.34 46.972.679 1.176 81.34-46.972-.679-1.176zm3.731 2.037l-81.339 46.973.679 1.176 81.339-46.973-.679-1.176zm3.378 2.054l-81.339 46.972.679 1.176 81.339-46.972-.679-1.176zm3.792 1.933l-81.339 46.972.679 1.176 81.339-46.972-.679-1.176z" />
    <path d="M241.47 592.058l-81.34 46.973.679 1.175 81.34-46.972-.679-1.176z" />
  </g>
  <path
    d="M232.089 608.661c-3.039-3.798-6.353-3.038-14.776-4.925-7.227-1.612-14.776-1.543-21.934.299-7.112 1.841-11.462 3.015-14.408 6.352l-3.797 1.979v7.872l.023.207c.161 5.316 4.511 10.288 13.142 13.855 8.584 3.544 18.159 4.074 27.181 1.91 12.75-3.061 19.172-9.482 19.356-15.949l.023-.3v-7.572l-4.81-3.728z"
    fill="#002102" />
  <path
    d="M206.795 638.673c-5.846 0-11.623-1.105-16.894-3.269-8.769-3.613-13.694-8.907-13.855-14.914l-.023-.092-.023-8.745 4.235-2.21c3.268-3.567 8.147-4.833 14.845-6.559 7.273-1.865 15.052-1.98 22.486-.323 2.347.53 4.258.829 5.938 1.105 4.327.714 6.973 1.128 9.39 4.12l5.201 3.982-.023 8.561c-.23 7.618-7.802 13.994-20.253 17.009a46.047 46.047 0 01-11.024 1.335zm-28.424-25.57l.023 7.203c.161 5.133 4.557 9.667 12.405 12.912 8.124 3.337 17.515 4.005 26.468 1.841 11.185-2.693 18.251-8.377 18.458-14.822l.023-.368v-6.905l-4.58-3.567c-1.887-2.371-3.821-2.67-8.01-3.36-1.726-.276-3.682-.599-6.076-1.128-7.088-1.588-14.476-1.473-21.381.299-7.25 1.864-11.162 2.969-13.809 5.984l-.345.276-3.176 1.635z"
    fill="#002102" />
  <path
    d="M207.048 629.627c16.499 0 29.874-7.718 29.874-17.238 0-9.521-13.375-17.239-29.874-17.239s-29.874 7.718-29.874 17.239c0 9.52 13.375 17.238 29.874 17.238z"
    fill="#fff" />
  <path
    d="M207.048 630.779c-7.872 0-15.72-1.727-21.704-5.179-6.03-3.475-9.344-8.17-9.344-13.211 0-5.04 3.314-9.735 9.344-13.211 11.968-6.904 31.462-6.904 43.43 0 6.03 3.476 9.344 8.171 9.344 13.211 0 5.041-3.314 9.736-9.344 13.211-6.007 3.452-13.855 5.179-21.726 5.179zm0-34.477c-7.434 0-14.868 1.634-20.53 4.902-5.27 3.038-8.147 6.997-8.147 11.162 0 4.166 2.9 8.125 8.147 11.163 11.324 6.536 29.736 6.536 41.059 0 5.271-3.038 8.148-6.997 8.148-11.163 0-4.165-2.9-8.124-8.148-11.162-5.661-3.268-13.095-4.902-20.529-4.902z"
    fill="#002102" />
  <path
    d="M221.801 604.932c-8.148-4.097-21.358-4.097-29.506 0-8.147 4.12-8.147 10.771 0 14.868 8.148 4.097 21.358 4.097 29.506 0 8.147-4.097 8.147-10.748 0-14.868z"
    fill="#002102" />
  <path
    d="M207.048 624.058c-5.547 0-11.071-1.059-15.282-3.199-4.35-2.21-6.767-5.225-6.767-8.493 0-3.291 2.394-6.306 6.767-8.493 8.423-4.257 22.14-4.257 30.564 0 4.35 2.21 6.766 5.225 6.766 8.493 0 3.268-2.393 6.306-6.766 8.493-4.212 2.14-9.759 3.199-15.282 3.199zm0-21.036c-5.156 0-10.288.99-14.224 2.969-3.475 1.749-5.454 4.074-5.454 6.375 0 2.302 1.979 4.626 5.454 6.375 7.848 3.959 20.599 3.959 28.424 0 3.476-1.749 5.455-4.073 5.455-6.375 0-2.301-1.979-4.626-5.455-6.375-3.912-1.979-9.045-2.969-14.2-2.969z"
    fill="#002102" />
  <path
    d="M221.801 609.397c-8.147-4.12-21.358-4.12-29.506 0-2.946 1.473-4.81 3.291-5.615 5.201.805 1.911 2.669 3.729 5.615 5.202 8.148 4.12 21.359 4.12 29.506 0 2.946-1.473 4.81-3.291 5.616-5.202-.806-1.91-2.67-3.728-5.616-5.201z"
    fill="#53C744" />
  <path
    d="M207.048 624.058c-5.524 0-11.07-1.059-15.282-3.176-3.084-1.565-5.225-3.567-6.168-5.8l-.207-.46.207-.461c.966-2.232 3.084-4.257 6.168-5.799 8.424-4.258 22.141-4.258 30.564 0 3.084 1.565 5.225 3.567 6.168 5.799l.208.461-.208.46c-.966 2.233-3.084 4.258-6.168 5.8-4.211 2.117-9.758 3.176-15.282 3.176zm-19.057-9.459c.829 1.542 2.486 2.969 4.834 4.166 7.848 3.958 20.598 3.958 28.424 0 2.347-1.174 4.004-2.601 4.833-4.166-.829-1.542-2.509-2.969-4.833-4.143-7.849-3.959-20.599-3.959-28.424 0-2.348 1.174-4.005 2.601-4.834 4.143z"
    fill="#002102" />
  <path
    d="M224.678 627.28h-1.819v6.49h1.819v-6.49zm-42.21-5.477h-1.819v6.49h1.819v-6.49zm28.285-19.679h-1.818v4.189h1.818v-4.189z"
    fill="#53C744" />
  <path
    d="M191.674 610.18v3.567l4.925 1.818 2.302-3.751.069-.046 17.353 10.012a28.682 28.682 0 004.235-1.404l1.864-1.082v-3.568l-23.038-9.735-7.71 4.189z"
    fill="#002102" />
  <path
    d="M216.185 622.769l-16.939-9.781-2.279 3.682-6.214-2.302v-4.741l8.585-4.626 23.982 10.15v4.695l-2.325 1.335a28.266 28.266 0 01-4.465 1.496l-.345.092zM198.9 610.755l.53.23 17.031 9.828a26.226 26.226 0 003.729-1.266l1.311-.76v-2.439l-22.071-9.321-6.859 3.705v2.394l3.637 1.335 2.025-3.292.667-.414z"
    fill="#002102" />
  <path
    d="M198.97 608.223l-.069.046-2.302 3.752-4.925-1.818 3.291-5.179 4.419-2.555 23.015 13.303-5.201 2.992-18.228-10.541z"
    fill="#fff" />
  <path
    d="M217.221 619.8l-17.975-10.38-2.279 3.683-6.674-2.463 4.028-6.306 5.086-2.923 23.936 13.809v1.082l-.506.253-5.616 3.245zm-18.32-12.589l.529.23 17.791 10.265 3.383-1.957-21.22-12.244-3.774 2.187-2.578 4.027 3.176 1.174 2.025-3.291.668-.391z"
    fill="#002102" />
  <path d="M220.995 628.362h-1.818v6.49h1.818v-6.49z" fill="#53C744" />
  <path
    d="M269.097 106.084l-14.052 5.414a69.918 69.918 0 00-27.531 19.219l-20.04 22.884c-2.187 2.515-1.941 6.315.574 8.502l40.053 35.05c2.515 2.187 6.315 1.941 8.502-.575l20.04-22.883a70.048 70.048 0 0127.531-19.22l14.053-5.413a80.219 80.219 0 0031.495-21.981l17.388-19.848c2.187-2.516 1.941-6.316-.574-8.503l-40.053-35.05c-2.515-2.187-6.315-1.94-8.502.575l-17.388 19.848a80.226 80.226 0 01-31.496 21.981z"
    fill="#fff" />
  <path
    d="M252.038 200.077a7.419 7.419 0 01-4.894-1.831l-40.025-35.05c-1.504-1.312-2.379-3.116-2.515-5.112-.137-1.969.519-3.882 1.831-5.386l20.04-22.883c7.601-8.694 17.334-15.474 28.105-19.63l14.053-5.413a79.104 79.104 0 0030.948-21.599l17.388-19.848c1.313-1.504 3.117-2.379 5.113-2.515a7.299 7.299 0 015.386 1.831l40.052 35.05c1.504 1.312 2.379 3.116 2.516 5.112.136 1.969-.52 3.882-1.832 5.386l-17.361 19.849c-8.666 9.897-19.766 17.661-32.042 22.363l-14.052 5.414c-10.335 3.991-19.685 10.498-26.985 18.837l-20.039 22.883c-1.559 1.668-3.637 2.542-5.687 2.542zm17.06-93.993l.492 1.312-14.053 5.414a68.886 68.886 0 00-26.984 18.837l-20.04 22.883c-1.667 1.914-1.476 4.839.438 6.534l40.025 35.049c1.914 1.668 4.839 1.477 6.534-.437l20.04-22.883a71.44 71.44 0 0128.105-19.603l14.053-5.413a79.112 79.112 0 0030.948-21.598l17.361-19.849a4.54 4.54 0 001.148-3.335 4.598 4.598 0 00-1.558-3.172l-40.053-35.05c-.929-.82-2.132-1.202-3.335-1.147a4.596 4.596 0 00-3.172 1.558l-17.388 19.849c-8.666 9.896-19.766 17.634-32.042 22.363l-.519-1.312z"
    fill="#002102" />
  <path
    d="M318.391 84.43c-.246-.218-.437-.464-.629-.683l-7.245 8.284a80.43 80.43 0 01-32.479 22.364l-13.506 5.003a70.019 70.019 0 00-28.378 19.548l-10.964 12.521c3.117 2.734 3.445 7.492.711 10.608l19.22 16.841a7.496 7.496 0 0110.498-.765l10.909-12.467a70.156 70.156 0 0128.515-19.602l13.424-4.949a80.024 80.024 0 0032.616-22.418l7.136-8.148c-3.117-2.734-3.445-7.491-.711-10.607l-18.509-16.213c-2.761 3.09-7.491 3.418-10.608.684z"
    fill="#53C744" />
  <path
    d="M245.23 180.858l-21.325-18.673.93-1.066c2.214-2.543 1.968-6.398-.574-8.612l-1.067-.93 11.893-13.56a71.353 71.353 0 0128.953-19.931l13.505-5.003a79.218 79.218 0 0031.906-21.954l8.311-9.487 1.23 1.367c.11.137.219.274.356.383a6.13 6.13 0 004.429 1.504 6.012 6.012 0 004.183-2.078l.929-1.066 20.642 18.071-.93 1.066c-2.214 2.543-1.968 6.398.574 8.612l1.066.93-8.065 9.213c-8.94 10.225-20.422 18.099-33.19 22.802l-13.424 4.948a68.954 68.954 0 00-27.941 19.192l-11.838 13.506-1.066-.902c-2.543-2.16-6.37-1.859-8.53.629l-.957 1.039zm-17.47-19.029l17.279 15.119c2.925-2.406 7.108-2.706 10.334-.738l10.088-11.51a71.49 71.49 0 0129.09-19.985l13.423-4.949c12.303-4.538 23.403-12.138 32.042-22.008l6.288-7.19c-2.46-2.953-2.733-7.191-.683-10.444l-16.568-14.517c-1.421 1.203-3.199 1.913-5.112 2.05-2.215.137-4.375-.52-6.097-1.886l-6.288 7.163c-8.913 10.197-20.341 18.044-33.026 22.746l-13.506 5.003a68.989 68.989 0 00-27.832 19.165l-10.088 11.538c2.433 2.952 2.706 7.19.656 10.443z"
    fill="#002102" />
  <path
    d="M230.968 144.886l-1.855 2.118 30.44 26.657 1.855-2.119-30.44-26.656zm4.746-5.44l-1.856 2.119 30.44 26.657 1.856-2.119-30.44-26.657zm26.316-19.604l-1.855 2.119 30.44 26.656 1.855-2.118-30.44-26.657zm51.519-31.114l-1.856 2.119 30.44 26.656 1.856-2.118-30.44-26.657zm-8.422 9.664l-1.856 2.118 30.44 26.657 1.856-2.118-30.44-26.657z"
    fill="#002102" />
  <path
    d="M266.883 134.927l4.73 4.156a14.876 14.876 0 0015.119 2.707l19.247-7.382c3.581-1.367 4.401-6.042 1.531-8.557l-4.757-4.183a14.818 14.818 0 00-15.119-2.68l-19.22 7.382c-3.581 1.367-4.402 6.042-1.531 8.557z"
    fill="#fff" />
  <path
    d="M281.4 144.168c-3.882 0-7.682-1.395-10.717-4.047l-4.729-4.155a6.4 6.4 0 01-2.106-6.015c.411-2.269 1.914-4.101 4.047-4.921l19.219-7.382c5.66-2.187 12.003-1.039 16.568 2.953l4.757 4.183a6.419 6.419 0 012.105 6.015c-.41 2.269-1.913 4.101-4.073 4.921l-19.247 7.382a16.518 16.518 0 01-5.824 1.066zm11.565-24.797c-1.64 0-3.253.3-4.839.902l-19.22 7.382a3.631 3.631 0 00-2.296 2.788 3.68 3.68 0 001.203 3.418l4.729 4.155a13.353 13.353 0 0013.67 2.434l19.247-7.382a3.638 3.638 0 002.297-2.789 3.68 3.68 0 00-1.203-3.417l-4.757-4.183a13.368 13.368 0 00-8.831-3.308z"
    fill="#002102" />
  <path
    d="M219.968 154.666c1.586 1.395 1.75 3.828.355 5.414-1.394 1.585-3.827 1.749-5.413.355-1.586-1.394-1.75-3.827-.355-5.413 1.421-1.586 3.827-1.75 5.413-.356z"
    fill="#419258" />
  <path
    d="M217.453 162.786c-1.23 0-2.46-.437-3.445-1.285-2.187-1.913-2.406-5.221-.492-7.381 1.914-2.16 5.222-2.379 7.382-.492 2.16 1.913 2.378 5.221.492 7.381a5.244 5.244 0 01-3.937 1.777zm0-7.655c-.683 0-1.34.274-1.832.82-.875 1.012-.792 2.543.219 3.418a2.447 2.447 0 003.418-.219c.874-1.011.792-2.542-.219-3.417a2.303 2.303 0 00-1.586-.602z"
    fill="#002102" />
  <path
    d="M253.077 183.646c1.586 1.394 1.75 3.828.356 5.413-1.395 1.586-3.828 1.75-5.413.356-1.586-1.395-1.75-3.828-.356-5.413 1.394-1.586 3.828-1.75 5.413-.356z"
    fill="#53C744" />
  <path
    d="M250.562 191.766a5.28 5.28 0 01-3.445-1.285c-1.066-.929-1.695-2.187-1.777-3.581a5.242 5.242 0 011.285-3.8c.929-1.039 2.187-1.695 3.581-1.777a5.24 5.24 0 013.8 1.285 5.104 5.104 0 011.777 3.608 5.244 5.244 0 01-1.285 3.801 5.312 5.312 0 01-3.936 1.749zm0-7.655h-.164a2.445 2.445 0 00-1.668.82 2.45 2.45 0 00-.602 1.75c.055.656.328 1.23.821 1.668a2.446 2.446 0 003.417-.219 2.447 2.447 0 00.601-1.75 2.441 2.441 0 00-.82-1.667 2.3 2.3 0 00-1.585-.602z"
    fill="#002102" />
  <path
    d="M326.02 72.785c1.585 1.394 1.749 3.827.355 5.413-1.394 1.586-3.827 1.75-5.413.355-1.586-1.394-1.75-3.827-.355-5.413 1.394-1.586 3.827-1.75 5.413-.355z"
    fill="#53C744" />
  <path
    d="M323.477 80.904a5.322 5.322 0 01-3.445-1.285c-1.039-.93-1.695-2.187-1.777-3.581a5.242 5.242 0 011.285-3.8c1.914-2.16 5.222-2.406 7.382-.492 1.038.93 1.695 2.187 1.777 3.581a5.246 5.246 0 01-1.285 3.8c-.93 1.04-2.188 1.695-3.582 1.777h-.355zm.027-7.655c-.683 0-1.34.274-1.832.82a2.447 2.447 0 00-.601 1.75c.054.656.328 1.23.82 1.668.492.437 1.094.656 1.75.601a2.447 2.447 0 001.668-.82 2.45 2.45 0 00.601-1.75 2.447 2.447 0 00-.82-1.667 2.4 2.4 0 00-1.586-.602z"
    fill="#002102" />
  <path
    d="M359.373 102.01c1.586 1.395 1.75 3.828.356 5.414-1.395 1.585-3.828 1.749-5.414.355-1.585-1.394-1.749-3.827-.355-5.413 1.422-1.586 3.828-1.75 5.413-.356z"
    fill="#53C744" />
  <path
    d="M356.858 110.13a5.323 5.323 0 01-3.445-1.285c-1.039-.929-1.695-2.187-1.777-3.581a5.244 5.244 0 011.285-3.801c1.913-2.16 5.222-2.378 7.381-.492 1.039.93 1.695 2.187 1.777 3.582a5.242 5.242 0 01-1.285 3.8c-.929 1.039-2.187 1.695-3.581 1.777h-.355zm0-7.655c-.684 0-1.34.273-1.832.82a2.448 2.448 0 00-.602 1.75c.055.656.328 1.23.821 1.668a2.45 2.45 0 001.749.601 2.448 2.448 0 001.668-.82 2.447 2.447 0 00.601-1.75 2.445 2.445 0 00-.82-1.668c-.437-.41-1.011-.601-1.585-.601zm-69.325 15.966l-1.855 2.118 17.832 15.616 1.855-2.118-17.832-15.616zm-8.3 3.11l-1.855 2.118 17.832 15.616 1.855-2.118-17.832-15.616z"
    fill="#002102" />
  <path d="M364.386 118.92l-9.585 11.12 2.133 1.838 9.585-11.119-2.133-1.839z" fill="#fff" />
  <mask id="mask1_272_35" style="mask-type:luminance" maskUnits="userSpaceOnUse" x="234" y="490" width="194"
    height="112">
    <path
      d="M425.835 580.508l-35.131 20.286c-2.734 1.586-7.518 1.394-10.69-.438l-143.396-82.784c-3.171-1.832-3.499-4.593-.765-6.179l35.131-20.286c2.734-1.585 7.518-1.394 10.69.438l143.396 82.784c3.171 1.832 3.499 4.593.765 6.179z"
      fill="#fff" />
  </mask>
  <g mask="url(#mask1_272_35)" fill="#002102">
    <path
      d="M504.447 395.796L130.591 611.358l.806 1.398 373.856-215.562-.806-1.398zm4.426 2.348L135.017 613.706l.805 1.398 373.857-215.562-.806-1.398zm4.018 2.402L139.035 616.108l.806 1.398 373.856-215.562-.806-1.398zm4.495 2.334L143.529 618.442l.806 1.397 373.856-215.562-.805-1.397zm3.709 2.682L147.238 621.124l.806 1.398L521.9 406.96l-.805-1.398zm4.425 2.35L151.664 623.474l.806 1.397 373.856-215.562-.806-1.397zm4.019 2.399L155.683 625.873l.805 1.397 373.857-215.562-.806-1.397zm4.519 2.321L160.201 628.193l.806 1.398 373.856-215.562-.805-1.397zm3.996 2.62L164.197 630.814l.806 1.397 373.856-215.562-.805-1.397zm4.508 2.231L168.706 633.045l.806 1.397L543.368 418.88l-.806-1.397zm4.02 2.526L172.726 635.571l.805 1.398 373.857-215.562-.806-1.398zm4.505 2.297L177.23 637.868l.806 1.397 373.857-215.562-.806-1.397zm3.7 2.723L180.931 640.591l.805 1.398 373.857-215.562-.806-1.398zm4.426 2.349L185.356 642.94l.806 1.397 373.857-215.562-.806-1.397zm4.017 2.396L189.374 645.336l.806 1.397 373.856-215.562-.806-1.397zm4.506 2.412L193.88 647.748l.806 1.397 373.856-215.562-.806-1.397zm4.019 2.511L197.898 650.259l.806 1.398 373.857-215.562-.806-1.398zM445.34 361.899L71.483 577.46l.806 1.398 373.857-215.562-.806-1.397zm4.518 2.32L76.002 579.781l.806 1.397 373.856-215.562-.806-1.397zm3.709 2.573L79.711 582.354l.806 1.397 373.856-215.562-.806-1.397zm4.424 2.23L84.135 584.584l.805 1.398L458.798 370.42l-.806-1.398zm4.02 2.525L88.154 587.109l.806 1.397 373.856-215.562-.805-1.397zm4.518 2.32L92.673 589.429l.806 1.397 373.856-215.561-.806-1.398zm4.059 2.513L96.731 591.985l.806 1.397 373.857-215.605-.806-1.397zm4.447 2.368L101.179 594.31l.805 1.397 373.857-215.561-.806-1.398zm4.021 2.602L105.199 596.911l.806 1.398 373.856-215.562-.805-1.397zm4.48 2.311L109.68 599.223l.805 1.398 373.857-215.562-.806-1.398zm3.79 2.607L113.427 601.786l.805 1.398 373.9-215.519-.806-1.397zm4.357 2.23L117.826 604.06l.806 1.397 373.856-215.562-.805-1.397zm4.089 2.629l-373.9 215.518.806 1.398 373.899-215.519-.805-1.397zm4.436 2.287L126.352 608.976l.805 1.397 373.857-215.562-.806-1.397z" />
    <path
      d="M504.204 395.939L130.348 611.501l.805 1.397L505.01 397.336l-.806-1.397zm126.523 72.75L256.87 684.251l.806 1.398 373.856-215.562-.805-1.398zm4.424 2.207L261.295 686.458l.806 1.398 373.856-215.562-.806-1.398zm3.996 2.667L265.291 689.125l.806 1.397L639.953 474.96l-.806-1.397zm4.519 2.32L269.81 691.445l.805 1.398 373.857-215.562-.806-1.398zm3.71 2.573L273.52 694.018l.805 1.397 373.857-215.562-.806-1.397zm4.425 2.348L277.944 696.365l.806 1.398 373.856-215.562-.805-1.397zm4.018 2.408L281.963 698.774l.806 1.398L656.625 484.61l-.806-1.398zm4.519 2.423L286.481 701.197l.806 1.397 373.856-215.561-.805-1.398zm3.996 2.526L290.478 703.723l.805 1.397L665.14 489.558l-.806-1.397zm4.509 2.219L294.986 705.942l.806 1.397 373.856-215.562-.805-1.397zm4.019 2.636L299.006 708.578l.806 1.397 373.856-215.562-.806-1.397zm4.558 2.295L303.521 710.83l.805 1.398 373.9-215.519-.806-1.398zm3.72 2.48L307.283 713.396l.806 1.397 373.857-215.605-.806-1.397zm4.351 2.353L311.635 715.706l.805 1.397 373.857-215.562-.806-1.397zm4.019 2.511L315.653 718.217l.806 1.397 373.857-215.562-.806-1.397zm4.505 2.295L320.158 720.511l.806 1.398L694.82 506.347l-.805-1.397zm3.997 2.654L324.155 723.166l.806 1.397 373.856-215.562-.805-1.397zm-121.873-70.493L202.282 652.673l.806 1.397 373.856-215.562-.805-1.397zm3.707 2.457L205.989 655.13l.806 1.397 373.856-215.562-.805-1.397zm4.429 2.498L210.376 657.542l.805 1.397 373.9-215.475-.806-1.398zm4.016 2.478L214.435 660.106l.805 1.397 373.857-215.562-.806-1.397zm4.518 2.301L218.953 662.407l.806 1.398 373.856-215.562-.806-1.398zm3.996 2.427L222.948 664.834l.806 1.397L597.61 450.669l-.805-1.397zm4.51 2.461L227.459 667.294l.806 1.398L602.121 453.13l-.806-1.397zm3.995 2.523L231.454 669.818l.806 1.397 373.856-215.562-.806-1.397zm4.506 2.298L235.96 672.116l.806 1.398 373.856-215.562-.806-1.398zm3.722 2.595L239.682 674.711l.805 1.398 373.857-215.562-.806-1.398zm4.425 2.229L244.106 676.94l.806 1.397 373.856-215.562-.805-1.397zm4.02 2.613L248.127 679.553l.806 1.397 373.856-215.562-.806-1.397zm4.504 2.316L252.631 681.868l.806 1.398 373.856-215.562-.806-1.397z" />
    <path d="M630.482 468.711L256.626 684.273l.806 1.397 373.856-215.562-.806-1.397z" />
  </g>
  <mask id="mask2_272_35" style="mask-type:luminance" maskUnits="userSpaceOnUse" x="409" y="568" width="96" height="55">
    <path
      d="M500.253 618.537l-4.073 1.75c-5.851 3.39-16.076 2.953-22.856-.957l-58.644-33.874c-6.753-3.909-7.491-9.814-1.64-13.177l4.074-1.75c5.85-3.39 16.075-2.953 22.855.957l58.644 33.874c6.753 3.882 7.491 9.787 1.64 13.177z"
      fill="#fff" />
  </mask>
  <g mask="url(#mask2_272_35)" fill="#002102">
    <path
      d="M477.218 550.539l-96.656 55.731.806 1.397 96.656-55.731-.806-1.397zm4.415 2.265l-96.655 55.731.805 1.397 96.656-55.731-.806-1.397zm4.019 2.51l-96.656 55.731.806 1.397 96.655-55.73-.805-1.398zm4.506 2.397l-96.656 55.73.806 1.398 96.655-55.731-.805-1.397zm3.721 2.618l-96.655 55.731.805 1.397 96.656-55.731-.806-1.397zm4.425 2.248l-96.656 55.731.806 1.397 96.656-55.73-.806-1.398zm3.996 2.502l-96.655 55.731.805 1.397 96.656-55.73-.806-1.398zm4.505 2.421l-96.656 55.73.806 1.398 96.656-55.731-.806-1.397zm4.019 2.511l-96.655 55.73.806 1.398 96.655-55.731-.806-1.397zm4.486 2.232l-96.656 55.731.806 1.397 96.656-55.73-.806-1.398zm4.019 2.635l-96.655 55.731.806 1.397 96.655-55.73-.806-1.398zm4.505 2.297l-96.655 55.731.805 1.397 96.656-55.731-.806-1.397zm3.783 2.566L430.95 635.46l.806 1.398 96.666-55.72-.805-1.397zm4.365 2.253l-96.656 55.731.806 1.397 96.655-55.73-.805-1.398zm3.982 2.653l-96.667 55.709.805 1.397 96.667-55.708-.805-1.398zm4.532 2.318l-96.655 55.731.806 1.397 96.655-55.73-.806-1.398zm4.005 2.487l-96.655 55.731.805 1.398 96.656-55.731-.806-1.398zm-84.486-48.45l-96.666 55.708.805 1.398 96.667-55.708-.806-1.398zm4.438 2.228l-96.655 55.73.806 1.398 96.655-55.731-.806-1.397zm3.996 2.644l-96.655 55.73.806 1.398 96.655-55.731-.806-1.397zm4.519 2.32l-96.656 55.73.806 1.398 96.656-55.731-.806-1.397z" />
    <path d="M476.961 550.683l-96.667 55.709.805 1.397 96.667-55.708-.805-1.398z" />
  </g>
  <mask id="mask3_272_35" style="mask-type:luminance" maskUnits="userSpaceOnUse" x="180" y="436" width="96" height="55">
    <path
      d="M271.613 486.925l-4.074 1.75c-5.851 3.39-16.076 2.952-22.856-.957l-58.643-33.874c-6.753-3.91-7.491-9.815-1.641-13.178l4.074-1.749c5.851-3.391 16.076-2.953 22.856.956l58.643 33.874c6.753 3.882 7.491 9.788 1.641 13.178z"
      fill="#fff" />
  </mask>
  <g mask="url(#mask3_272_35)" fill="#002102">
    <path
      d="M248.59 418.926l-96.655 55.731.805 1.397 96.656-55.73-.806-1.398zm4.402 2.279l-96.655 55.73.806 1.398 96.655-55.731-.806-1.397zm4.02 2.609l-96.656 55.731.806 1.397 96.656-55.731-.806-1.397zm4.505 2.283l-96.656 55.731.806 1.397 96.656-55.731-.806-1.397zm3.722 2.61l-96.656 55.731.806 1.398 96.655-55.731-.805-1.398zm4.425 2.263l-96.655 55.731.806 1.397 96.655-55.731-.806-1.397zm3.995 2.611l-96.655 55.73.806 1.398 96.655-55.731-.806-1.397zm4.556 2.292l-96.667 55.719.805 1.398 96.667-55.72-.805-1.397zm3.969 2.515l-96.656 55.731.806 1.397 96.656-55.73-.806-1.398zm4.486 2.256l-96.655 55.731.805 1.397 96.656-55.731-.806-1.397zm4.07 2.608l-96.667 55.719.806 1.398 96.667-55.72-.806-1.397zm4.467 2.325l-96.655 55.731.805 1.397 96.656-55.73-.806-1.398zm3.709 2.574l-96.655 55.73.805 1.398 96.656-55.731-.806-1.397zm4.426 2.244l-96.655 55.731.805 1.397 96.656-55.731-.806-1.397zm4.02 2.614l-96.656 55.731.806 1.397 96.655-55.731-.805-1.397zm4.494 2.334L215.2 511.074l.806 1.397 96.655-55.73-.805-1.398zm4.018 2.391l-96.655 55.731.805 1.397 96.656-55.731-.806-1.397zm-84.486-48.452l-96.656 55.731.806 1.397 96.656-55.73-.806-1.398zm4.426 2.445l-96.656 55.73.806 1.398 96.655-55.731-.805-1.397zm3.996 2.525l-96.656 55.731.806 1.397 96.656-55.73-.806-1.398zm4.518 2.32l-96.655 55.73.806 1.398 96.655-55.731-.806-1.397z" />
    <path d="M248.347 418.971l-96.656 55.73.806 1.398 96.656-55.731-.806-1.397z" />
  </g>
  <path
    d="M540.033 230.616L146.725 3.534c-3.472-2.024-6.671-2.242-9.213-1.012-.027 0-.055.027-.082.027-.055.028-.082.028-.137.055-14.326 6.425-24.223 14.271-24.223 14.271l18.892 18.427v282.363c0 10.882 6.616 23.512 14.763 28.215l382.044 220.576-13.315 6.561 9.651 15.092s11.811-3.226 25.18-14.764c2.789-1.968 4.511-5.987 4.511-11.537V258.831c0-10.882-6.589-23.512-14.763-28.215z"
    fill="#53C744" />
  <path
    d="M524.394 589.995l-11.264-17.634 12.221-6.042-379.419-219.045c-8.584-4.949-15.583-18.236-15.583-29.609V35.985l-19.712-19.22 1.449-1.148c.41-.328 10.252-8.065 24.578-14.49 3.281-1.585 7.081-1.203 10.881.984l393.307 227.083c8.585 4.949 15.584 18.236 15.584 29.609V561.78c0 5.905-1.832 10.471-5.195 12.877-13.369 11.565-25.207 14.873-25.699 15.01l-1.148.328zm-6.589-16.322l7.983 12.521c3.199-1.121 12.85-4.948 23.43-14.08 2.543-1.831 3.965-5.549 3.965-10.307V258.83c0-10.334-6.261-22.364-13.944-26.793L145.932 4.927c-2.898-1.667-5.55-1.995-7.682-.956l-.219.082c-10.854 4.866-19.192 10.607-22.446 12.959l18.017 17.579v283.047c0 10.334 6.261 22.363 13.943 26.792l384.668 222.08-14.408 7.163z"
    fill="#002102" />
  <path d="M132.126 62.669v104.3L383.24 311.951l147.688-86.584L190.715 28.822 132.126 62.67z" fill="#fff" />
  <path
    d="M383.267 313.838L130.513 167.899V61.712l60.201-34.749.821.465L534.182 225.34l-150.915 88.499zM133.739 166.012L383.24 310.065l144.462-84.698L190.687 30.709l-56.948 32.89v102.413zm-6.698-135.331l4.757 4.62v9.16l41.83-25.29-20.341-11.756-24.305 13.807-1.941 9.46z"
    fill="#002102" />
  <path
    d="M130.157 47.331V36.013l-4.893-4.757 2.269-11.073 25.754-14.6 23.512 13.589-46.642 28.16zm-1.339-17.196l4.593 4.483v6.945l37.018-22.364-17.142-9.897-22.856 12.959-1.613 7.874z"
    fill="#002102" />
  <path
    d="M438.001 571.322c-.766-3.745-3.336-6.889-6.671-8.803l-15.283-8.831c-15.556-8.994-28.296-31.057-28.296-49.02V403.266c0-.137-.055-.246-.192-.301l-15.392-8.885c-.273-.164-.602.109-.492.41 1.203 3.991 1.886 8.01 1.886 11.838v73.461c0 4.539-.957 8.23-2.624 11.073l-1.559-12.002a.34.34 0 00-.382-.301l-31.933 3.718c-.137.028-.246-.027-.328-.136-6.808-8.858-11.373-20.204-11.373-30.183v-73.462c0-3.937.738-7.272 1.995-9.924.082-.164.028-.355-.136-.437l-15.529-8.968c-.246-.137-.547.028-.547.301V460.05c0 18.208-12.904 25.645-28.652 16.541l-15.912-9.186c-1.667-.957-2.843-1.176-3.909-.52l-.328.164s-14.545 5.796-29.773 17.333a.348.348 0 00-.027.547l12.002 10.717.054.055 147.142 81.745c.027.028.082.055.109.082l14.408 16.896c.11.11.219.164.383.11 2.133-.793 19.903-7.573 30.374-17.88 1.039-.957 1.504-2.762.985-5.332z"
    fill="#53C744" />
  <path
    d="M406.533 596.174c-.547 0-1.094-.246-1.504-.711l-14.271-16.732-147.142-81.718-.218-.219-11.948-10.662c-.437-.41-.683-.957-.656-1.558a1.929 1.929 0 01.793-1.504c15.228-11.537 29.554-17.306 30.155-17.552l.219-.109c1.859-1.176 3.91-.329 5.441.574l15.911 9.186c7.109 4.101 13.697 4.784 18.619 1.968 4.893-2.843 7.6-8.912 7.6-17.114V359.44c0-.71.383-1.367.984-1.722a1.953 1.953 0 011.969 0l15.529 8.967c.902.52 1.23 1.641.792 2.57-1.23 2.543-1.831 5.632-1.831 9.214v73.461c0 9.104 3.964 19.767 10.607 28.625l31.222-3.636c1.039-.11 2.051.628 2.187 1.695l.684 5.139c.191-1.257.273-2.569.273-3.991V406.3c0-3.526-.601-7.354-1.804-11.373-.246-.793.027-1.613.656-2.132.629-.492 1.504-.547 2.215-.164l15.392 8.885a2.01 2.01 0 01.984 1.722v101.403c0 17.497 12.33 38.877 27.504 47.625l15.282 8.831c3.91 2.242 6.617 5.851 7.437 9.87.601 2.952.082 5.386-1.477 6.835-10.662 10.498-28.87 17.442-30.921 18.208a1.315 1.315 0 01-.683.164zM245.53 494.361l147.251 81.8.274.301 13.833 16.24c4.129-1.613 19.603-8.011 28.953-17.197.711-.683.902-2.105.547-3.855-.629-3.116-2.789-5.932-5.878-7.737l-15.283-8.831c-16.048-9.268-29.117-31.878-29.117-50.414V403.977l-12.084-6.972c.766 3.226 1.148 6.343 1.148 9.295v73.462c0 4.675-.957 8.694-2.843 11.893l-2.406 4.073-2.023-15.447-30.702 3.582c-.711.082-1.367-.219-1.805-.766-7.327-9.514-11.701-21.161-11.701-31.167v-73.461c0-3.582.574-6.781 1.695-9.542l-12.631-7.299v98.395c0 9.405-3.281 16.485-9.241 19.903-5.96 3.445-13.724 2.734-21.871-1.969l-15.912-9.186c-1.613-.929-2.023-.683-2.242-.546l-.465.246c-.246.109-13.861 5.577-28.296 16.267l10.799 9.623z"
    fill="#002102" />
  <path
    d="M438.001 571.732c-.383-1.886-.055-2.105-1.23-3.608-11.401 8.994-30.457 16.923-30.457 16.923l-7.573.984 7.491 8.803c.11.11.219.164.383.11 2.133-.793 19.903-7.573 30.374-17.88 1.067-.985 1.531-2.789 1.012-5.332z"
    fill="#1A0E33" />
  <path
    d="M406.533 596.584c-.546 0-1.093-.246-1.503-.711l-9.432-11.073 10.307-1.367c2.023-.875 19.383-8.338 29.882-16.622l1.285-1.012 1.011 1.285c1.067 1.367 1.203 2.078 1.367 3.172.028.3.082.656.192 1.121.601 2.952.082 5.385-1.477 6.834-10.662 10.499-28.87 17.443-30.921 18.209a1.486 1.486 0 01-.711.164zm-4.593-9.35l4.976 5.85c4.128-1.613 19.603-8.01 28.953-17.196.711-.684.902-2.106.547-3.855-.11-.547-.164-.985-.219-1.34 0-.055 0-.082-.027-.109-11.51 8.502-28.488 15.611-29.226 15.911l-.411.11-4.593.629z"
    fill="#002102" />
  <path
    d="M391.059 577.254c.027.028.082.055.109.082l3.883 4.566 34.912-19.958-14.599-8.42c-2.215-1.285-4.374-2.871-6.452-4.621a2217.561 2217.561 0 01-34.393 19.193l16.54 9.158z"
    fill="#fff" />
  <path
    d="M394.668 583.98l-4.62-5.413-18.919-10.499 2.597-1.421a2258.15 2258.15 0 0034.366-19.166l.984-.574.875.739a43.569 43.569 0 006.206 4.456l17.033 9.842-38.522 22.036zm-16.786-15.884l14.216 7.901.274.273 3.034 3.554 31.304-17.88-12.138-7.026c-1.914-1.094-3.855-2.461-5.824-4.074a2226.522 2226.522 0 01-30.866 17.252z"
    fill="#002102" />
  <path
    d="M282.52 476.644l-15.911-9.186c-1.668-.957-2.844-1.175-3.91-.519l-.328.164s-14.545 5.796-29.773 17.333a.348.348 0 00-.027.547l12.002 10.717c.027.027.055.027.055.055l1.558 2.324 36.334-21.435z"
    fill="#fff" />
  <path
    d="M245.667 500.266l-2.269-3.418-11.92-10.635c-.438-.41-.684-.957-.657-1.558a1.99 1.99 0 01.766-1.504c15.255-11.564 29.554-17.306 30.156-17.552l.191-.109c1.886-1.176 3.909-.328 5.44.574l18.318 10.581-40.025 23.621zm-.137-5.878l.219.109.929 1.395 32.617-19.247-13.506-7.792c-1.613-.93-2.023-.684-2.242-.547l-.465.246c-.273.109-13.861 5.605-28.296 16.267l10.744 9.569zm142.248 10.28v-39.259c-6.561-2.242-11.482-3.855-12.002-3.855-.191 0-.984.191-2.187.547v17.688c0 4.539-.957 8.23-2.624 11.073l-1.559-12.002a.34.34 0 00-.382-.301l-31.933 3.718c-.137.028-.246-.027-.328-.136a59.053 59.053 0 01-4.484-6.753c-.875.3-1.394.464-1.394.464l3.499 68.568 16.841 10.17.465.602 13.725 7.628 1.995-2.543s16.951-9.295 34.038-19.821c-8.202-10.499-13.67-24.004-13.67-35.788z"
    fill="#002102" />
  <path
    d="M365.797 564.87l-15.228-8.448-.465-.629-17.306-10.471-3.609-70.645 3.828-1.258.656 1.148a55.335 55.335 0 003.91 6.015l31.221-3.636c1.039-.109 2.051.629 2.188 1.695l.683 5.14c.192-1.258.274-2.57.274-3.992V460.87l1.175-.328c1.969-.574 2.324-.601 2.625-.601.465 0 .984 0 12.521 3.964l1.094.383v40.408c0 10.908 5.085 24.222 13.287 34.748l1.121 1.422-1.531.957c-15.693 9.678-31.495 18.427-33.819 19.684l-2.625 3.363zm-13.068-10.963l12.221 6.78 1.339-1.722.301-.164c.164-.082 16.103-8.831 32.452-18.837-8.092-10.964-12.877-24.032-12.877-35.296v-38.084c-7.546-2.57-9.76-3.226-10.389-3.39-.109.027-.273.055-.547.137v16.458c0 4.675-.957 8.694-2.843 11.893l-2.406 4.074-2.023-15.447-30.702 3.581c-.711.082-1.367-.219-1.805-.765a59.99 59.99 0 01-2.788-3.965l3.28 64.303 16.377 9.897.41.547z"
    fill="#002102" />
  <path
    d="M402.405 580.59l-16.458-9.487c-15.529-8.967-28.132-30.784-28.132-48.719V420.572l-16.322-9.433c1.367 4.293 2.16 8.585 2.16 12.686v73.462c0 15.364-10.799 21.598-24.114 13.915-13.314-7.682-24.113-26.382-24.113-41.775v-73.461c0-4.074.793-7.491 2.16-10.198l-16.322-9.432v101.813c0 17.935-12.604 25.207-28.133 16.239l-16.458-9.486c-3.253-1.887-5.878-.356-5.878 3.39 0 3.745 2.625 8.311 5.878 10.17l165.76 95.689c3.253 1.886 5.878.355 5.878-3.39-.027-3.746-2.679-8.284-5.906-10.171z"
    fill="#53C744" />
  <path
    d="M405.03 596.584c-1.094 0-2.269-.356-3.445-1.039l-165.76-95.689c-3.745-2.16-6.698-7.245-6.698-11.592 0-2.406.902-4.265 2.543-5.222 1.64-.956 3.69-.792 5.768.41l16.459 9.487c6.999 4.047 13.478 4.73 18.263 1.969 4.784-2.762 7.436-8.722 7.436-16.814V373.465l20.094 11.592-.683 1.367c-1.312 2.598-1.969 5.769-1.969 9.46v73.461c0 14.846 10.444 32.944 23.294 40.353 5.933 3.418 11.4 4.019 15.419 1.696 4.019-2.324 6.261-7.382 6.261-14.217v-73.461c0-3.801-.683-7.902-2.078-12.194l-1.285-3.992 20.778 12.003v102.769c0 17.388 12.249 38.604 27.313 47.298l16.458 9.486c3.746 2.16 6.698 7.245 6.698 11.592 0 2.406-.902 4.265-2.542 5.222-.711.492-1.504.684-2.324.684zM234.021 485.722c-.274 0-.52.054-.738.164-.575.328-.903 1.203-.903 2.406 0 3.171 2.324 7.19 5.058 8.776l165.76 95.688c1.039.602 1.941.738 2.543.41.574-.328.902-1.203.902-2.406 0-3.171-2.324-7.19-5.058-8.776l-16.458-9.486c-15.967-9.214-28.926-31.687-28.926-50.114V421.501l-12.084-6.972c.766 3.226 1.149 6.343 1.149 9.296v73.461c0 8.038-2.789 14.08-7.874 17.006-5.085 2.925-11.702 2.323-18.673-1.696-13.752-7.928-24.934-27.312-24.934-43.169v-73.461c0-3.582.574-6.78 1.695-9.542l-12.631-7.299v99.024c0 9.268-3.226 16.239-9.049 19.602-5.824 3.363-13.479 2.679-21.516-1.968l-16.459-9.487c-.656-.383-1.285-.574-1.804-.574z"
    fill="#002102" />
  <path
    d="M295.344 396.185v73.461c0 15.365 10.799 34.065 24.113 41.775 13.315 7.682 24.114 1.449 24.114-13.916v-73.461c0-4.074-.793-8.394-2.16-12.686l8.557 4.949v-28.133h-53.421c-.766 2.297-1.203 4.976-1.203 8.011z"
    fill="#fff" />
  <path
    d="M330.229 516.369c-3.582 0-7.519-1.175-11.592-3.526-13.752-7.929-24.934-27.313-24.934-43.17v-73.461c0-3.144.438-6.015 1.312-8.557l.383-1.094h56.183v32.561l-7.546-4.374c.766 3.226 1.149 6.343 1.149 9.296v73.461c0 8.038-2.789 14.08-7.874 17.005-2.105 1.231-4.511 1.859-7.081 1.859zm-32.452-126.582c-.52 1.914-.793 4.074-.793 6.398v73.461c0 14.845 10.444 32.944 23.293 40.353 5.933 3.418 11.401 4.019 15.42 1.695s6.261-7.381 6.261-14.216v-73.462c0-3.773-.711-7.874-2.078-12.193l-1.285-3.992 9.76 5.632V389.76h-50.578v.027z"
    fill="#002102" />
  <path
    d="M330.858 388.174h-34.284c-.793 2.297-1.23 4.976-1.23 8.011v73.461c0 11.428 5.96 24.688 14.49 33.901 8.584.684 14.599-5.686 14.599-17.142v-73.461c0-4.074-.793-8.393-2.16-12.686l8.558 4.949v-17.033h.027z"
    fill="#002102" />
  <path
    d="M311.091 505.242c-.465 0-.929-.027-1.394-.054l-.629-.055-.437-.465c-9.077-9.788-14.928-23.539-14.928-34.995v-73.461c0-3.144.438-6.015 1.312-8.557l.383-1.094h37.045v21.462l-7.545-4.375c.765 3.226 1.148 6.343 1.148 9.296v73.461c0 6.671-1.914 11.948-5.523 15.283-2.515 2.324-5.768 3.554-9.432 3.554zm-.492-3.281c3.007.11 5.714-.82 7.764-2.679 2.926-2.706 4.484-7.163 4.484-12.877v-73.461c0-3.773-.711-7.874-2.078-12.194l-1.285-3.991 9.761 5.632v-12.577h-31.468c-.52 1.914-.793 4.074-.793 6.398v73.461c0 10.499 5.331 23.102 13.615 32.288z"
    fill="#002102" />
  <path
    d="M303.546 392.221v73.461c0 15.365 10.799 34.065 24.113 41.775 4.293 2.488 8.312 3.499 11.811 3.226 2.597-2.953 4.101-7.409 4.101-13.178v-73.461c0-4.074-.793-8.393-2.16-12.686l8.558 4.949v-7.601c-.137-.437-.219-.875-.383-1.312l.383.219v-19.411h-46.15c-.191 1.23-.273 2.597-.273 4.019z"
    fill="#53C744" />
  <path
    d="M338.404 512.35c-3.637 0-7.601-1.202-11.592-3.499-13.752-7.928-24.934-27.312-24.934-43.169V392.22c0-1.449.109-2.87.301-4.265l.191-1.394h49.184v32.561l-7.546-4.374c.766 3.226 1.148 6.343 1.148 9.296v73.461c0 5.96-1.558 10.909-4.511 14.244l-.437.492-.656.055c-.356.027-.738.054-1.148.054zm-33.136-122.563a23.62 23.62 0 00-.109 2.406v73.461c0 14.846 10.443 32.945 23.293 40.354 3.581 2.077 7.054 3.144 10.225 3.062 2.16-2.734 3.281-6.726 3.281-11.592v-73.462c0-3.773-.711-7.874-2.078-12.193l-1.285-3.992 9.76 5.632-.082-4.839c-.082-.246-.137-.519-.219-.765l-1.285-4.019 1.586.929v-14.982h-43.087zm139.541-91.451l-4.511 217.978 86.448 49.922 28.05-16.075V259.76c0-6.972-2.707-14.627-6.808-20.478l-48.555 27.914-54.624 31.14z"
    fill="#002102" />
  <path
    d="M526.745 568.096l-88.088-50.852.028-.957 4.511-218.881 55.444-31.604 49.84-28.652.848 1.23c4.429 6.37 7.081 14.381 7.081 21.407V551.09l-29.664 17.006zm-84.807-52.738l84.807 48.965 26.41-15.146V259.76c0-5.96-2.105-12.713-5.686-18.318l-47.243 27.148-53.859 30.703-4.429 216.065z"
    fill="#002102" />
  <path
    d="M516.165 586.987L122.858 359.905c-8.147-4.703-14.763-17.334-14.763-28.215V28.74c0-10.88 6.616-15.857 14.763-11.154l393.307 227.082c8.148 4.703 14.764 17.334 14.764 28.215V575.86c0 10.827-6.589 15.83-14.764 11.127z"
    fill="#53C744" />
  <path
    d="M522.043 590.377c-2.105 0-4.402-.656-6.671-1.995L122.065 361.299c-8.585-4.948-15.584-18.235-15.584-29.609V28.74c0-6.315 2.16-11.182 5.906-13.341 3.199-1.86 7.217-1.559 11.291.765l393.307 227.083c8.585 4.948 15.584 18.235 15.584 29.608v302.978c0 6.315-2.16 11.182-5.905 13.341a9.394 9.394 0 01-4.621 1.203zm-5.058-4.784c3.035 1.75 5.878 2.023 8.038.766 2.734-1.586 4.293-5.414 4.293-10.526V272.855c0-10.334-6.261-22.363-13.944-26.792L122.065 18.98c-3.035-1.75-5.878-2.023-8.038-.765-2.734 1.585-4.292 5.413-4.292 10.525v302.978c0 10.334 6.261 22.363 13.943 26.792l393.307 227.083z"
    fill="#002102" />
  <path
    d="M514.853 554.809L124.198 329.257c-2.324-1.34-4.211-4.948-4.211-8.065V34.974c0-3.117 1.887-4.539 4.211-3.199l390.655 225.552c2.324 1.339 4.21 4.948 4.21 8.065V551.61c0 3.117-1.886 4.538-4.21 3.199z"
    fill="#53C744" />
  <path
    d="M516.52 556.941c-.82 0-1.667-.246-2.487-.711L123.377 330.679c-2.816-1.641-5.03-5.796-5.03-9.46V34.974c0-2.242.82-3.992 2.269-4.812 1.257-.738 2.871-.656 4.374.219l390.656 225.551c2.815 1.641 5.03 5.796 5.03 9.46V551.61c0 2.242-.82 3.991-2.269 4.812-.547.355-1.203.519-1.887.519zM122.53 32.923c-.11 0-.192.028-.274.055-.328.191-.656.875-.656 1.996v286.218c0 2.488 1.586 5.604 3.418 6.643l390.655 225.552c.219.137.793.41 1.148.219.328-.192.656-.875.656-1.996V265.392c0-2.488-1.585-5.605-3.417-6.644L123.405 33.197c-.192-.082-.575-.274-.875-.274z"
    fill="#002102" />
  <path
    d="M518.516 552.54L127.861 326.988c-2.324-1.339-4.21-4.948-4.21-8.065V32.705c0-.41.027-.793.109-1.148-2.078-.875-3.718.52-3.718 3.417v286.218c0 3.117 1.886 6.726 4.21 8.066l390.656 225.551c2.023 1.176 3.69.246 4.101-2.023-.165-.109-.329-.164-.493-.246z"
    fill="#002102" />
  <path
    d="M516.575 556.914c-.82 0-1.668-.246-2.488-.711L123.432 330.652c-2.816-1.641-5.031-5.796-5.031-9.46V34.974c0-2.132.739-3.773 2.051-4.648 1.121-.738 2.515-.82 3.909-.246l1.203.492-.218 1.285a4.221 4.221 0 00-.082.848v286.218c0 2.488 1.585 5.605 3.417 6.643l390.655 225.552c.055.027.11.055.164.055l1.231.492-.11 1.367c-.3 1.695-1.175 2.952-2.433 3.527a3.738 3.738 0 01-1.613.355zM122.01 33.279c-.191.328-.355.875-.355 1.695v286.218c0 2.488 1.585 5.605 3.417 6.644l390.656 225.551c.464.274.847.356 1.093.246a.557.557 0 00.164-.109L127.068 328.41c-2.816-1.641-5.03-5.796-5.03-9.46V33.279h-.028zM333.647 468.47l-28.269-16.321c-1.258-.739-2.297-2.68-2.297-4.375 0-1.695 1.012-2.46 2.297-1.722l28.269 16.322c1.257.738 2.296 2.679 2.296 4.374 0 1.668-1.011 2.433-2.296 1.722z"
    fill="#002102" />
  <path
    d="M334.576 470.357c-.574 0-1.148-.164-1.722-.492l-28.269-16.322c-1.778-1.012-3.09-3.499-3.09-5.769 0-1.476.574-2.679 1.613-3.253.93-.52 2.051-.492 3.117.109l28.269 16.322c1.777 1.012 3.089 3.499 3.089 5.769 0 1.476-.574 2.679-1.613 3.253a2.814 2.814 0 01-1.394.383zm-29.855-22.829v.219c0 1.176.793 2.57 1.477 2.953l28.105 16.239v-.218c0-1.203-.793-2.57-1.477-2.953l-28.105-16.24z"
    fill="#002102" />
  <path
    d="M550.547 537.484l-17.047 9.844 1.627 2.817 17.047-9.844-1.627-2.817zm-160.18-9.889l-25.028 14.392 1.622 2.82 25.028-14.392-1.622-2.82zm-82.091-38.304l-5.547 3.189 1.622 2.82 5.546-3.189-1.621-2.82zm241.892-235.895l-17.047 9.842 1.627 2.817 17.047-9.842-1.627-2.817z"
    fill="#53C744" />
  <path
    d="M546.239 484.928l-6.89 3.965c-1.23.711-2.214-.055-2.214-1.668v-18.318c0-1.613.984-3.499 2.214-4.21l6.89-3.964c1.23-.711 2.214.055 2.214 1.668v18.317c0 1.613-.984 3.5-2.214 4.21z"
    fill="#002102" />
  <path
    d="M538.474 490.78a2.62 2.62 0 01-1.367-.356c-1.011-.574-1.586-1.75-1.586-3.199v-18.317c0-2.215 1.285-4.621 3.008-5.632l6.889-3.964c1.039-.602 2.16-.656 3.062-.11 1.012.574 1.586 1.75 1.586 3.199v18.318c0 2.214-1.285 4.62-3.007 5.632l-6.89 3.964a3.242 3.242 0 01-1.695.465zm8.366-28.488l-6.671 3.827c-.656.383-1.394 1.668-1.394 2.816v18.427l6.643-3.827c.657-.383 1.395-1.668 1.395-2.816v-18.318c.027-.027.027-.082.027-.109z"
    fill="#53C744" />
  <path
    d="M546.239 448.731l-6.89 3.965c-1.23.711-2.214-.055-2.214-1.668V432.71c0-1.613.984-3.499 2.214-4.21l6.89-3.964c1.23-.711 2.214.055 2.214 1.668v18.317c0 1.613-.984 3.5-2.214 4.21z"
    fill="#002102" />
  <path
    d="M538.474 454.609c-.492 0-.957-.109-1.367-.355-1.011-.574-1.586-1.75-1.586-3.199v-18.318c0-2.214 1.285-4.62 3.008-5.631l6.889-3.965c1.039-.601 2.16-.656 3.062-.109 1.012.574 1.586 1.75 1.586 3.199v18.317c0 2.215-1.285 4.621-3.007 5.632l-6.89 3.964c-.547.301-1.121.465-1.695.465zm8.366-28.515l-6.671 3.828c-.656.382-1.394 1.667-1.394 2.815v18.427l6.643-3.827c.657-.383 1.395-1.695 1.395-2.816v-18.318c.027-.027.027-.082.027-.109zM138.49 313.739l-17.047 9.844 1.627 2.818 17.047-9.844-1.627-2.818z"
    fill="#53C744" />
  <path d="M154.736 321.985l-5.332-3.117v-23.594l5.332 3.089v23.622z" fill="#fff" />
  <path
    d="M155.063 322.532l-6.014-3.472V294.7l6.014 3.472v24.36zm-5.358-3.828l4.702 2.707v-22.856l-4.702-2.707v22.856zm15.447 9.268l-5.358-3.089V277.64l5.358 3.089v47.243z"
    fill="#fff" />
  <path
    d="M165.48 328.546l-6.014-3.472v-47.981l6.014 3.472v47.981zm-5.358-3.855l4.702 2.707v-46.477l-4.702-2.707v46.477zm-15.775-8.722l-5.359-3.089v-9.897l5.359 3.117v9.869z"
    fill="#fff" />
  <path
    d="M144.675 316.516l-6.015-3.472v-10.635l6.015 3.472v10.635zm-5.359-3.827l4.703 2.706v-9.131l-4.703-2.707v9.132zm36.225 21.298l-5.358-3.089v-73.161l5.358 3.089v73.161z"
    fill="#fff" />
  <path
    d="M175.869 334.534l-6.015-3.472v-73.899l6.015 3.472v73.899zm-5.358-3.828l4.702 2.707v-72.395l-4.702-2.707v72.395zm15.447 9.268l-5.358-3.09V229.959l5.358 3.09v106.925z"
    fill="#fff" />
  <path
    d="M186.286 340.548l-6.015-3.472V229.385l6.015 3.472v107.691zm-5.358-3.855l4.702 2.707V233.213l-4.702-2.707v106.187zm15.419 9.296l-5.359-3.09V203.823l5.359 3.089v139.077z"
    fill="#fff" />
  <path
    d="M196.675 346.563l-6.015-3.472V203.249l6.015 3.472v139.842zm-5.359-3.855l4.703 2.707V207.076l-4.703-2.706v138.338zm15.419 9.295l-5.358-3.089V171.125l5.358 3.089v177.789z"
    fill="#fff" />
  <path
    d="M207.064 352.55l-6.015-3.472V170.55l6.015 3.473V352.55zm-5.359-3.828l4.702 2.707V174.378l-4.702-2.707v177.051zm15.447 9.269l-5.358-3.09V142.664l5.358 3.09v212.237z"
    fill="#fff" />
  <path
    d="M217.481 358.565l-6.015-3.472V142.118l6.015 3.472v212.975zm-5.359-3.855l4.702 2.707V145.945l-4.702-2.706V354.71zm15.419 9.296l-5.358-3.09V153.71l5.358 3.089v207.207z"
    fill="#fff" />
  <path
    d="M227.869 364.553l-6.015-3.473V153.135l6.015 3.473v207.945zm-5.358-3.828l4.702 2.707V156.99l-4.702-2.706v206.441zm15.446 9.268l-5.358-3.09V171.398l5.358 3.117v195.478z"
    fill="#fff" />
  <path
    d="M238.285 370.567l-6.014-3.472V170.851l6.014 3.473v196.243zm-5.358-3.827l4.702 2.706V174.679l-4.702-2.707V366.74zm15.42 9.268l-5.359-3.089V218.094l5.359 3.09v154.824z"
    fill="#fff" />
  <path
    d="M248.675 376.582l-6.015-3.472V217.52l6.015 3.472v155.59zm-5.359-3.855l4.703 2.707V221.348l-4.703-2.707v154.086zm15.42 9.295l-5.359-3.089V253.608l5.359 3.09v125.324z"
    fill="#fff" />
  <path
    d="M259.064 382.569l-6.015-3.472V253.034l6.015 3.472v126.063zm-5.359-3.827l4.702 2.706V256.889l-4.702-2.706v124.559zm15.447 9.268l-5.358-3.09V281.604l5.358 3.089V388.01z"
    fill="#fff" />
  <path
    d="M269.481 388.584l-6.015-3.472V281.03l6.015 3.472v104.082zm-5.359-3.855l4.702 2.707V284.858l-4.702-2.707v102.578zm15.419 9.296l-5.358-3.09v-86.94l5.358 3.09v86.94z"
    fill="#fff" />
  <path
    d="M279.869 394.599l-6.015-3.472v-87.678l6.015 3.472v87.678zm-5.358-3.855l4.702 2.707v-86.175l-4.702-2.706v86.174zm15.446 9.295l-5.358-3.117v-77.398l5.358 3.089v77.426z"
    fill="#fff" />
  <path
    d="M290.285 400.586l-6.014-3.472V318.95l6.014 3.472v78.164zm-5.358-3.828l4.702 2.707v-76.66l-4.702-2.707v76.66zm15.42 9.268l-5.359-3.089v-71.821l5.359 3.089v71.821z"
    fill="#fff" />
  <path
    d="M300.675 406.6l-6.015-3.472v-72.586l6.015 3.472V406.6zm-5.359-3.855l4.703 2.707v-71.083l-4.703-2.706v71.082zm15.419 9.297l-5.358-3.09v-71.848l5.358 3.089v71.849z"
    fill="#fff" />
  <path
    d="M311.063 412.588l-6.014-3.472V336.53l6.014 3.472v72.586zm-5.358-3.827l4.702 2.706v-71.083l-4.702-2.706v71.083zm15.447 9.268l-5.359-3.09v-86.912l5.359 3.089v86.913z"
    fill="#fff" />
  <path
    d="M321.48 418.603l-6.015-3.472v-87.678l6.015 3.472v87.678zm-5.359-3.855l4.702 2.707V331.28l-4.702-2.706v86.174zm15.42 9.295l-5.358-3.09V314.028l5.358 3.09v106.925z"
    fill="#fff" />
  <path
    d="M331.869 424.617l-6.015-3.472V313.454l6.015 3.473v107.69zm-5.358-3.855l4.702 2.707V317.282l-4.702-2.707v106.187zm15.446 9.296l-5.358-3.09V301.644l5.358 3.089v125.325z"
    fill="#fff" />
  <path
    d="M342.258 430.605l-6.015-3.473V301.07l6.015 3.472v126.063zm-5.331-3.828l4.702 2.707v-124.56l-4.702-2.706v124.559zm15.42 9.269l-5.359-3.09V287.81l5.359 3.09v145.146z"
    fill="#fff" />
  <path
    d="M352.675 436.62l-6.015-3.473V287.236l6.015 3.472V436.62zm-5.359-3.855l4.703 2.706V291.064l-4.703-2.707v144.408zm15.419 9.295l-5.358-3.089V273.348l5.358 3.089V442.06z"
    fill="#fff" />
  <path
    d="M363.064 442.634l-6.015-3.472V272.801l6.015 3.472v166.361zm-5.359-3.854l4.702 2.706V276.628l-4.702-2.706V438.78zm15.447 9.295l-5.359-3.117V249.48l5.359 3.09v195.505z"
    fill="#fff" />
  <path
    d="M373.48 448.622l-6.015-3.472V248.906l6.015 3.472v196.244zm-5.359-3.828l4.702 2.707v-194.74l-4.702-2.707v194.74zm15.42 9.268l-5.358-3.089V227.581l5.358 3.089v223.392z"
    fill="#fff" />
  <path
    d="M383.869 454.637l-6.015-3.473V227.035l6.015 3.472v224.13zm-5.358-3.855l4.702 2.706V230.862l-4.702-2.707v222.627zm15.446 9.295l-5.358-3.09V269.52l5.358 3.089v187.468z"
    fill="#fff" />
  <path
    d="M394.258 460.624l-6.015-3.473V268.946l6.015 3.472v188.206zm-5.359-3.828l4.703 2.707v-186.73l-4.703-2.706v186.729zm15.448 9.268l-5.359-3.089V317.829l5.359 3.089v145.146z"
    fill="#fff" />
  <path
    d="M404.675 466.639l-6.015-3.472V317.283l6.015 3.472v145.884zm-5.359-3.855l4.703 2.707V321.11l-4.703-2.706v144.38zm15.419 9.295l-5.358-3.089V307.604l5.358 3.09v161.385z"
    fill="#fff" />
  <path
    d="M415.064 472.653l-6.015-3.472V307.057l6.015 3.472v162.124zm-5.359-3.855l4.702 2.707V310.858l-4.702-2.707v160.647zm15.447 9.296l-5.359-3.089V339.838l5.359 3.089v135.167z"
    fill="#fff" />
  <path
    d="M425.48 478.641l-6.015-3.472V339.264l6.015 3.472v135.905zm-5.359-3.828l4.702 2.707V343.118l-4.702-2.706v134.401zm15.42 9.268l-5.358-3.089V379.644l5.358 3.089v101.348z"
    fill="#fff" />
  <path
    d="M435.869 484.655l-6.015-3.472V379.069l6.015 3.473v102.113zm-5.358-3.855l4.702 2.707v-100.61l-4.702-2.707V480.8zm15.419 9.296l-5.331-3.09v-81.034l5.331 3.089v81.035z"
    fill="#fff" />
  <path
    d="M446.258 490.643l-6.015-3.472v-81.773l6.015 3.472v81.773zm-5.359-3.828l4.703 2.707v-80.269l-4.703-2.707v80.269zm15.447 9.295l-5.359-3.116v-62.635l5.359 3.089v62.662z"
    fill="#fff" />
  <path
    d="M456.674 496.657l-6.015-3.472v-63.4l6.015 3.472v63.4zm-5.359-3.827l4.703 2.706v-61.897l-4.703-2.706v61.897zm15.42 9.267l-5.358-3.089v-48.883l5.358 3.089v48.883z"
    fill="#fff" />
  <path
    d="M467.063 502.672l-6.014-3.472v-49.622l6.014 3.473v49.621zm-5.358-3.855l4.702 2.707v-48.118l-4.702-2.707v48.118zm15.447 9.296l-5.359-3.09v-33.955l5.359 3.089v33.956z"
    fill="#fff" />
  <path
    d="M477.48 508.66l-6.015-3.472v-34.694l6.015 3.472v34.694zm-5.359-3.828l4.702 2.707v-33.19l-4.702-2.707v33.19zm15.419 9.268l-5.358-3.089v-19.685l5.358 3.117V514.1z"
    fill="#fff" />
  <path
    d="M487.868 514.674l-6.014-3.472v-20.423l6.014 3.473v20.422zm-5.358-3.855l4.702 2.707V494.58l-4.702-2.707v18.946zm15.42 9.296l-5.331-3.09v-9.842l5.331 3.089v9.843z"
    fill="#fff" />
  <path d="M498.258 520.689l-6.015-3.472v-10.581l6.015 3.473v10.58zm-5.359-3.855l4.703 2.707v-9.104l-4.703-2.707v9.104z"
    fill="#fff" />
  <path d="M154.736 317.528l-5.332-3.089v-6.89l5.332 3.09v6.889z" fill="#53C744" />
  <path d="M155.063 318.102l-6.014-3.472v-7.627l6.014 3.472v7.627zm-5.358-3.854l4.702 2.706v-6.151l-4.702-2.707v6.152z"
    fill="#fff" />
  <path d="M165.152 323.543l-5.358-3.09V305.69l5.358 3.089v14.764z" fill="#53C744" />
  <path
    d="M165.48 324.09l-6.014-3.472v-15.502l6.014 3.472v15.502zm-5.358-3.828l4.702 2.707v-14.025l-4.702-2.707v14.025z"
    fill="#fff" />
  <path d="M144.347 311.596l-5.359-3.09v-2.46l5.359 3.089v2.461z" fill="#53C744" />
  <path d="M144.675 312.17l-6.015-3.472v-3.226l6.015 3.472v3.226zm-5.359-3.855l4.703 2.706v-1.722l-4.703-2.707v1.723z"
    fill="#fff" />
  <path d="M175.541 329.53l-5.358-3.089V302.82l5.358 3.089v23.621z" fill="#53C744" />
  <path d="M175.869 330.105l-6.015-3.473v-24.359l6.015 3.472v24.36zm-5.358-3.855l4.702 2.706V306.1l-4.702-2.706v22.856z"
    fill="#fff" />
  <path d="M185.958 335.545l-5.358-3.089v-32.48l5.358 3.09v32.479z" fill="#53C744" />
  <path
    d="M186.286 336.092l-6.015-3.472v-33.218l6.015 3.472v33.218zm-5.358-3.828l4.702 2.707v-31.714l-4.702-2.707v31.714z"
    fill="#fff" />
  <path d="M196.347 341.56l-5.359-3.117v-45.247l5.359 3.089v45.275z" fill="#53C744" />
  <path
    d="M196.675 342.107l-6.015-3.473v-46.012l6.015 3.472v46.013zm-5.359-3.828l4.703 2.707v-44.509l-4.703-2.707v44.509z"
    fill="#fff" />
  <path d="M206.735 347.547l-5.358-3.089v-64.631l5.358 3.117v64.603z" fill="#53C744" />
  <path
    d="M207.064 348.122l-6.015-3.472v-65.369l6.015 3.472v65.369zm-5.359-3.855l4.702 2.706v-63.865l-4.702-2.706v63.865z"
    fill="#fff" />
  <path d="M217.152 353.562l-5.358-3.089v-83.905l5.358 3.089v83.905z" fill="#53C744" />
  <path
    d="M217.481 354.109l-6.015-3.472v-84.644l6.015 3.472v84.644zm-5.359-3.828l4.702 2.707v-83.14l-4.702-2.707v83.14z"
    fill="#fff" />
  <path d="M227.541 359.549l-5.358-3.089V244.777l5.358 3.09v111.682z" fill="#53C744" />
  <path
    d="M227.869 360.123l-6.015-3.472V244.204l6.015 3.472v112.447zm-5.358-3.854l4.702 2.706V248.031l-4.702-2.706v110.944z"
    fill="#fff" />
  <path d="M237.957 365.564l-5.358-3.089v-86.94l5.358 3.089v86.94z" fill="#53C744" />
  <path
    d="M238.285 366.138l-6.014-3.472v-87.678l6.014 3.472v87.678zm-5.358-3.855l4.702 2.707v-86.174l-4.702-2.707v86.174z"
    fill="#fff" />
  <path d="M248.347 371.579l-5.359-3.117v-62.635l5.359 3.09v62.662z" fill="#53C744" />
  <path
    d="M248.675 372.126l-6.015-3.472v-63.401l6.015 3.472v63.401zm-5.359-3.828l4.703 2.707v-61.897l-4.703-2.706v61.896z"
    fill="#fff" />
  <path d="M258.736 377.566l-5.359-3.09v-47.242l5.359 3.116v47.216z" fill="#53C744" />
  <path
    d="M259.064 378.14l-6.015-3.472v-47.981l6.015 3.472v47.981zm-5.359-3.855l4.702 2.707v-46.477l-4.702-2.707v46.477z"
    fill="#fff" />
  <path d="M269.152 383.581l-5.358-3.09V349.16l5.358 3.09v31.331z" fill="#53C744" />
  <path
    d="M269.481 384.127l-6.015-3.472v-32.069l6.015 3.472v32.069zm-5.359-3.827l4.702 2.706v-30.565l-4.702-2.707V380.3z"
    fill="#fff" />
  <path d="M279.541 389.568l-5.358-3.089v-20.97l5.358 3.09v20.969z" fill="#53C744" />
  <path
    d="M279.869 390.142l-6.015-3.472v-21.735l6.015 3.472v21.735zm-5.358-3.827l4.702 2.706V368.79l-4.702-2.707v20.232z"
    fill="#fff" />
  <path d="M289.957 395.583l-5.358-3.09v-13.451l5.358 3.09v13.451z" fill="#53C744" />
  <path
    d="M290.285 396.157l-6.014-3.472v-14.19l6.014 3.473v14.189zm-5.358-3.855l4.702 2.706v-12.685l-4.702-2.707v12.686z"
    fill="#fff" />
  <path d="M300.347 401.598l-5.359-3.089v-7.382l5.359 3.089v7.382z" fill="#53C744" />
  <path d="M300.675 402.145l-6.015-3.472v-8.12l6.015 3.472v8.12zm-5.359-3.828l4.703 2.707v-6.644l-4.703-2.706v6.643z"
    fill="#fff" />
  <path d="M310.735 407.585l-5.358-3.09V388.83l5.358 3.089v15.666z" fill="#53C744" />
  <path
    d="M311.063 408.159l-6.014-3.472v-16.404l6.014 3.472v16.404zm-5.358-3.855l4.702 2.707v-14.928l-4.702-2.706v14.927z"
    fill="#fff" />
  <path d="M321.152 413.599l-5.359-3.089v-23.621l5.359 3.089v23.621z" fill="#53C744" />
  <path d="M321.48 414.174l-6.015-3.472v-24.36l6.015 3.472v24.36zm-5.359-3.855l4.702 2.706V390.17l-4.702-2.707v22.856z"
    fill="#fff" />
  <path d="M331.541 419.614l-5.358-3.117v-33.928l5.358 3.089v33.956z" fill="#53C744" />
  <path
    d="M331.869 420.161l-6.015-3.472v-34.694l6.015 3.472v34.694zm-5.358-3.827l4.702 2.706v-33.19l-4.702-2.707v33.191z"
    fill="#fff" />
  <path d="M341.957 425.602l-5.358-3.089v-45.275l5.358 3.09v45.274z" fill="#53C744" />
  <path
    d="M342.258 426.176l-6.015-3.472v-46.013l6.015 3.472v46.013zm-5.331-3.855l4.702 2.707v-44.509l-4.702-2.707v44.509z"
    fill="#fff" />
  <path d="M352.347 431.617l-5.359-3.09v-64.631l5.359 3.09v64.631z" fill="#53C744" />
  <path
    d="M352.675 432.163l-6.015-3.472v-65.369l6.015 3.472v65.369zm-5.359-3.827l4.703 2.706v-63.865l-4.703-2.706v63.865z"
    fill="#fff" />
  <path d="M362.735 437.604l-5.358-3.09v-83.877l5.358 3.089v83.878z" fill="#53C744" />
  <path
    d="M363.064 438.178l-6.015-3.472v-84.643l6.015 3.472v84.643zm-5.359-3.855l4.702 2.707v-83.112l-4.702-2.707v83.112z"
    fill="#fff" />
  <path d="M373.152 443.619l-5.359-3.09V341.15l5.359 3.089v99.38z" fill="#53C744" />
  <path
    d="M373.48 444.193l-6.015-3.472V340.576l6.015 3.472v100.145zm-5.359-3.855l4.702 2.707v-98.642l-4.702-2.706v98.641z"
    fill="#fff" />
  <path d="M383.541 449.633l-5.358-3.089V319.579l5.358 3.089v126.965z" fill="#53C744" />
  <path d="M383.869 450.18l-6.015-3.472V319.005l6.015 3.472V450.18zm-5.358-3.827l4.702 2.706V322.86l-4.702-2.707v126.2z"
    fill="#fff" />
  <path d="M393.957 455.62l-5.358-3.089v-116.44l5.358 3.09V455.62z" fill="#53C744" />
  <path
    d="M394.258 456.195l-6.015-3.473V335.518l6.015 3.472v117.205zm-5.359-3.855l4.703 2.706V339.345l-4.703-2.707V452.34z"
    fill="#fff" />
  <path d="M404.346 461.635l-5.359-3.089V357.171l5.359 3.116v101.348z" fill="#53C744" />
  <path
    d="M404.674 462.209l-6.015-3.472V356.624l6.015 3.472v102.113zm-5.359-3.855l4.703 2.707v-100.61l-4.703-2.706v100.609z"
    fill="#fff" />
  <path d="M414.735 467.65l-5.358-3.117V355.311l5.358 3.09V467.65z" fill="#53C744" />
  <path
    d="M415.064 468.197l-6.015-3.472V354.737l6.015 3.473v109.987zm-5.359-3.828l4.702 2.707V358.592l-4.702-2.706v108.483z"
    fill="#fff" />
  <path d="M425.152 473.638l-5.359-3.09v-93.72l5.359 3.09v93.72z" fill="#53C744" />
  <path
    d="M425.48 474.212l-6.015-3.472v-94.486l6.015 3.472v94.486zm-5.359-3.855l4.702 2.707v-92.982l-4.702-2.707v92.982z"
    fill="#fff" />
  <path d="M435.541 479.652l-5.358-3.089v-64.631l5.358 3.089v64.631z" fill="#53C744" />
  <path
    d="M435.869 480.199l-6.015-3.472v-65.369l6.015 3.472v65.369zm-5.358-3.828l4.702 2.707v-63.866l-4.702-2.706v63.865z"
    fill="#fff" />
  <path d="M445.93 485.64l-5.331-3.089v-43.443l5.331 3.089v43.443z" fill="#53C744" />
  <path
    d="M446.258 486.214l-6.015-3.472v-44.208l6.015 3.472v44.208zm-5.359-3.855l4.703 2.707v-42.705l-4.703-2.706v42.704z"
    fill="#fff" />
  <path d="M456.346 491.654l-5.359-3.089v-31.331l5.359 3.089v31.331z" fill="#53C744" />
  <path
    d="M456.674 492.228l-6.015-3.472v-32.069l6.015 3.472v32.069zm-5.359-3.855l4.703 2.707v-30.566l-4.703-2.706v30.565z"
    fill="#fff" />
  <path d="M466.735 497.669l-5.358-3.09v-19.684l5.358 3.089v19.685z" fill="#53C744" />
  <path
    d="M467.063 498.216l-6.014-3.473v-20.422l6.014 3.472v20.423zm-5.358-3.828l4.702 2.707v-18.919l-4.702-2.707v18.919z"
    fill="#fff" />
  <path d="M477.152 503.656l-5.359-3.09v-13.451l5.359 3.09v13.451z" fill="#53C744" />
  <path
    d="M477.48 504.23l-6.015-3.472v-14.189l6.015 3.472v14.189zm-5.359-3.855l4.702 2.707v-12.713l-4.702-2.707v12.713z"
    fill="#fff" />
  <path d="M487.54 509.671l-5.358-3.089v-6.726l5.358 3.089v6.726z" fill="#53C744" />
  <path d="M487.868 510.218l-6.014-3.472v-7.464l6.014 3.472v7.464zm-5.358-3.828l4.702 2.707v-5.96l-4.702-2.707v5.96z"
    fill="#fff" />
  <path d="M497.93 515.686l-5.331-3.117v-3.691l5.331 3.117v3.691z" fill="#53C744" />
  <path d="M498.258 516.233l-6.015-3.472v-4.429l6.015 3.472v4.429zm-5.359-3.828l4.703 2.707v-2.953l-4.703-2.706v2.952z"
    fill="#fff" />
  <mask id="mask4_272_35" style="mask-type:luminance" maskUnits="userSpaceOnUse" x="649" y="383" width="79" height="46">
    <path
      d="M716.508 389.929c15.31 8.831 15.31 23.157 0 32.015-15.31 8.831-40.134 8.831-55.444 0-15.31-8.831-15.31-23.157 0-32.015 15.31-8.83 40.134-8.83 55.444 0z"
      fill="#fff" />
  </mask>
  <g mask="url(#mask4_272_35)" fill="#002102">
    <path
      d="M723.995 360.688l-96.655 55.731.806 1.397 96.655-55.73-.806-1.398zm4.44 2.373l-96.656 55.731.806 1.398 96.656-55.731-.806-1.398zm3.989 2.492l-96.667 55.708.805 1.398 96.667-55.709-.805-1.397zm4.514 2.18l-96.656 55.731.806 1.397 96.655-55.731-.805-1.397zm3.72 2.746l-96.656 55.73.806 1.398 96.655-55.731-.805-1.397zm4.425 2.349l-96.655 55.731.805 1.397 96.656-55.731-.806-1.397zm4.002 2.405l-96.655 55.73.805 1.398 96.656-55.731-.806-1.397zm4.501 2.265l-96.655 55.731.805 1.397 96.656-55.73-.806-1.398zm4.04 2.649l-96.655 55.731.805 1.397 96.656-55.73-.806-1.398zm4.468 2.36l-96.666 55.708.805 1.398 96.667-55.708-.806-1.398zm4.103 2.379l-96.656 55.742.806 1.397 96.655-55.742-.805-1.397zm4.439 2.426l-96.656 55.73.806 1.398 96.656-55.731-.806-1.397zm3.718 2.564l-96.656 55.731.806 1.397 96.656-55.73-.806-1.398zm4.407 2.394L682.105 448l.806 1.398 96.656-55.731-.806-1.397zm4.019 2.511l-96.656 55.731.806 1.397 96.655-55.73-.805-1.398zm4.571 2.167l-96.656 55.741.806 1.398 96.656-55.742-.806-1.397zm4.018 2.623l-96.667 55.719.806 1.398 96.666-55.72-.805-1.397zm-84.555-48.538l-96.656 55.73.806 1.398 96.655-55.731-.805-1.397zm4.396 2.332l-96.655 55.73.805 1.398 96.656-55.731-.806-1.397zm4.041 2.645l-96.655 55.731.805 1.397 96.656-55.73-.806-1.398zm4.506 2.296l-96.655 55.731.805 1.397 96.656-55.73-.806-1.398z" />
    <path d="M723.754 360.683l-96.655 55.731.805 1.397 96.656-55.731-.806-1.397z" />
  </g>
  <path
    d="M712.627 380.416c-3.609-4.512-7.546-3.609-17.552-5.851-8.585-1.914-17.552-1.832-26.055.355-8.448 2.187-13.615 3.582-17.115 7.546l-4.51 2.351v9.35l.027.246c.191 6.316 5.358 12.221 15.611 16.459 10.197 4.21 21.571 4.839 32.288 2.269 15.146-3.636 22.774-11.264 22.992-18.946l.028-.356v-8.994l-5.714-4.429z"
    fill="#002102" />
  <path
    d="M682.58 416.066c-6.944 0-13.806-1.312-20.067-3.882-10.416-4.292-16.267-10.58-16.458-17.716l-.028-.109L646 383.97l5.03-2.625c3.883-4.238 9.651-5.741 17.634-7.792 8.64-2.214 17.881-2.351 26.711-.382 2.789.628 5.058.984 7.054 1.312 5.14.847 8.284 1.339 11.154 4.894l6.179 4.729-.027 10.171c-.274 9.049-9.268 16.622-24.059 20.204a54.67 54.67 0 01-13.096 1.585zm-33.764-30.374l.027 8.557c.192 6.097 5.414 11.483 14.736 15.338 9.651 3.964 20.806 4.757 31.441 2.187 13.287-3.199 21.68-9.952 21.926-17.634l.027-.437v-8.202l-5.44-4.238c-2.242-2.816-4.538-3.171-9.542-3.992-2.05-.328-4.374-.71-7.217-1.339-8.421-1.887-17.197-1.75-25.399.355-8.612 2.215-13.232 3.527-16.403 7.108l-.411.329-3.745 1.968z"
    fill="#002102" />
  <path
    d="M707.979 370.354c13.861 8.011 13.861 20.97 0 28.98-13.861 8.011-36.334 8.011-50.168 0-13.861-8.01-13.861-20.969 0-28.98 13.834-8.01 36.307-8.01 50.168 0z"
    fill="#fff" />
  <path
    d="M682.881 406.689c-9.35 0-18.673-2.051-25.781-6.152-7.163-4.128-11.1-9.705-11.1-15.693 0-5.987 3.937-11.564 11.1-15.693 14.216-8.201 37.373-8.201 51.59 0 7.163 4.129 11.1 9.706 11.1 15.693 0 5.988-3.937 11.565-11.1 15.693-7.109 4.101-16.459 6.152-25.809 6.152zm0-40.955c-8.831 0-17.661 1.941-24.387 5.823-6.261 3.609-9.678 8.312-9.678 13.26s3.445 9.651 9.678 13.26c13.451 7.764 35.323 7.764 48.774 0 6.261-3.609 9.678-8.312 9.678-13.26s-3.445-9.651-9.678-13.26c-6.726-3.882-15.556-5.823-24.387-5.823z"
    fill="#002102" />
  <path
    d="M700.406 375.986c-9.679-4.866-25.371-4.866-35.05 0-9.678 4.867-9.678 12.795 0 17.662 9.679 4.866 25.371 4.866 35.05 0 9.678-4.867 9.678-12.768 0-17.662z"
    fill="#002102" />
  <path
    d="M682.881 398.706c-6.589 0-13.151-1.258-18.154-3.8-5.167-2.598-8.038-6.207-8.038-10.089 0-3.909 2.844-7.491 8.038-10.088 10.007-5.058 26.301-5.058 36.307 0 5.168 2.597 8.038 6.206 8.038 10.088 0 3.91-2.843 7.491-8.038 10.089-5.003 2.542-11.564 3.8-18.153 3.8zm0-24.961c-6.124 0-12.221 1.175-16.896 3.527-4.128 2.077-6.479 4.839-6.479 7.573s2.351 5.495 6.479 7.573c9.323 4.702 24.469 4.702 33.764 0 4.129-2.078 6.48-4.839 6.48-7.573s-2.351-5.496-6.48-7.573c-4.62-2.379-10.744-3.527-16.868-3.527z"
    fill="#002102" />
  <path
    d="M700.406 381.29c-9.678-4.866-25.371-4.866-35.05 0-3.499 1.75-5.714 3.91-6.67 6.179.956 2.269 3.171 4.429 6.67 6.179 9.679 4.866 25.372 4.866 35.05 0 3.499-1.75 5.714-3.91 6.671-6.179-.957-2.269-3.172-4.429-6.671-6.179z"
    fill="#53C744" />
  <path
    d="M682.881 398.706c-6.589 0-13.15-1.258-18.154-3.801-3.663-1.859-6.206-4.237-7.327-6.889l-.246-.547.246-.547c1.149-2.652 3.664-5.058 7.327-6.889 10.007-5.058 26.301-5.058 36.307 0 3.664 1.831 6.207 4.237 7.327 6.889l.246.547-.246.547c-1.148 2.652-3.69 5.058-7.327 6.889-5.003 2.543-11.564 3.801-18.153 3.801zm-22.637-11.237c.984 1.832 2.952 3.527 5.741 4.949 9.323 4.702 24.469 4.702 33.764 0 2.789-1.395 4.758-3.09 5.742-4.949-.984-1.832-2.98-3.527-5.742-4.948-9.322-4.703-24.468-4.703-33.764 0-2.761 1.421-4.757 3.116-5.741 4.948z"
    fill="#002102" />
  <path
    d="M703.823 402.533h-2.16v7.71h2.16v-7.71zm-50.141-6.507h-2.16v7.71h2.16v-7.71zm33.601-23.375h-2.16v4.976h2.16v-4.976z"
    fill="#53C744" />
  <path
    d="M664.618 382.22v4.237l5.851 2.16 2.734-4.456.082-.055 20.614 11.893a33.974 33.974 0 005.03-1.668l2.215-1.285v-4.238l-27.367-11.564-9.159 4.976z"
    fill="#002102" />
  <path
    d="M693.735 397.174l-20.122-11.619-2.68 4.374-7.381-2.734v-5.632l10.197-5.495 28.488 12.057v5.577l-2.761 1.586c-1.695.738-3.445 1.312-5.304 1.777l-.437.109zm-20.532-14.271l.628.274 20.232 11.674a32.515 32.515 0 004.429-1.504l1.558-.902v-2.898l-26.219-11.073-8.147 4.402v2.816l4.32 1.585 2.406-3.936.793-.438z"
    fill="#002102" />
  <path
    d="M673.285 379.896l-.082.054-2.734 4.457-5.851-2.16 3.91-6.152 5.249-3.034 27.339 15.802-6.178 3.554-21.653-12.521z"
    fill="#fff" />
  <path
    d="M694.965 393.648l-21.352-12.331-2.68 4.375-7.928-2.926 4.784-7.491 6.042-3.472 28.105 16.267.766.766-.984.957-6.753 3.855zm-21.762-14.955l.628.273 21.134 12.194 4.019-2.324-25.207-14.545-4.484 2.597-3.062 4.785 3.773 1.394 2.406-3.937.793-.437z"
    fill="#002102" />
  <path d="M699.449 403.818h-2.16v7.709h2.16v-7.709z" fill="#53C744" />
  <path
    d="M411.865 529.683l-12.357 8.612a70.133 70.133 0 00-22.173 25.235l-13.998 26.984a6.023 6.023 0 002.57 8.12l47.243 24.496a6.022 6.022 0 008.12-2.57l13.998-26.984a69.877 69.877 0 0122.172-25.235l12.358-8.612a80.28 80.28 0 0025.344-28.87l12.138-23.403a6.022 6.022 0 00-2.57-8.12l-47.242-24.496a6.022 6.022 0 00-8.12 2.57l-12.139 23.403a79.786 79.786 0 01-25.344 28.87z"
    fill="#fff" />
  <path
    d="M415.939 625.263a7.196 7.196 0 01-3.418-.848l-47.242-24.496a7.41 7.41 0 01-3.664-4.347 7.29 7.29 0 01.492-5.659l13.998-26.985a71.442 71.442 0 0122.61-25.753l12.357-8.612a79.162 79.162 0 0024.907-28.352l12.139-23.402c1.886-3.636 6.37-5.058 10.033-3.172l47.243 24.497c1.777.902 3.062 2.46 3.664 4.347a7.286 7.286 0 01-.493 5.659l-12.138 23.403a81.787 81.787 0 01-25.782 29.362l-12.357 8.612c-9.104 6.343-16.595 14.9-21.708 24.743l-13.998 26.984a7.405 7.405 0 01-4.347 3.663c-.792.219-1.558.356-2.296.356zm38.767-149.685a4.61 4.61 0 00-4.101 2.488l-12.138 23.403a81.805 81.805 0 01-25.781 29.363l-12.358 8.612c-9.104 6.343-16.595 14.9-21.708 24.742l-13.998 26.984a4.528 4.528 0 00-.3 3.527 4.642 4.642 0 002.269 2.707l47.243 24.496a4.533 4.533 0 003.527.301 4.643 4.643 0 002.706-2.269l13.998-26.985a71.453 71.453 0 0122.61-25.754l12.357-8.612c10.444-7.272 19.056-17.059 24.907-28.351l12.139-23.402a4.529 4.529 0 00.3-3.527 4.639 4.639 0 00-2.269-2.707l-47.243-24.496a4.743 4.743 0 00-2.16-.52z"
    fill="#002102" />
  <path
    d="M454.57 496.903c-.274-.137-.52-.328-.793-.519l-5.058 9.787c-6.151 11.838-15.146 21.981-26.191 29.445l-11.92 8.065a70.184 70.184 0 00-22.911 25.754l-7.655 14.763c3.691 1.914 5.112 6.453 3.199 10.116l22.692 11.756c1.886-3.636 6.37-5.085 10.033-3.253l7.628-14.709a70.241 70.241 0 0123.02-25.836l11.865-8.01a80.255 80.255 0 0026.328-29.527l5.003-9.624c-3.69-1.914-5.112-6.452-3.198-10.115l-21.845-11.319c-1.995 3.691-6.506 5.14-10.197 3.226z"
    fill="#53C744" />
  <path
    d="M406.506 607.984l-25.179-13.068.656-1.258a5.988 5.988 0 00.41-4.648 6.097 6.097 0 00-3.007-3.581l-1.258-.656 8.311-16.021c5.468-10.526 13.533-19.63 23.375-26.274l11.921-8.065c10.826-7.327 19.711-17.333 25.726-28.925l5.796-11.182 1.504 1.039c.136.109.273.191.437.301 2.98 1.558 6.671.382 8.229-2.625l.657-1.258 24.359 12.631-.656 1.258c-.738 1.449-.902 3.089-.41 4.648a6.097 6.097 0 003.007 3.581l1.258.656-5.632 10.881c-6.261 12.057-15.529 22.473-26.793 30.047l-11.865 8.01a68.837 68.837 0 00-22.555 25.316l-8.257 15.939-1.23-.628c-2.98-1.477-6.616-.301-8.147 2.652l-.657 1.23zm-21.461-14.299l20.368 10.581c2.242-3.035 6.261-4.32 9.869-3.199l7.054-13.588a71.9 71.9 0 0123.485-26.355l11.865-8.011a78.825 78.825 0 0025.863-29.007l4.402-8.475c-3.089-2.269-4.374-6.343-3.171-9.979l-19.548-10.143c-2.461 3.335-6.999 4.566-10.854 2.816l-4.374 8.448c-6.234 12.029-15.447 22.391-26.656 29.964l-11.92 8.065a68.977 68.977 0 00-22.446 25.235l-7.054 13.615a8.865 8.865 0 013.199 4.483c.519 1.859.492 3.773-.082 5.55z"
    fill="#002102" />
  <path
    d="M384.068 576.445l-1.297 2.5 35.919 18.629 1.297-2.5-35.919-18.629zm3.337-6.361l-1.297 2.499 35.919 18.629 1.296-2.5-35.918-18.628zm20.768-25.381l-1.296 2.5 35.919 18.625 1.296-2.5-35.919-18.625zm42.732-42.444l-1.297 2.5 35.919 18.629 1.297-2.5-35.919-18.629zm-5.915 11.348l-1.297 2.5 35.919 18.629 1.296-2.5-35.918-18.629z"
    fill="#002102" />
  <path
    d="M416.594 558.226l5.605 2.898a14.835 14.835 0 0015.31-.985l16.951-11.756c3.144-2.187 2.843-6.917-.547-8.666l-5.632-2.926a14.89 14.89 0 00-15.338.985l-16.895 11.756c-3.145 2.187-2.844 6.917.546 8.694z"
    fill="#fff" />
  <path
    d="M429.034 564.213c-2.57 0-5.14-.601-7.491-1.832l-5.605-2.898a6.537 6.537 0 01-3.499-5.331c-.137-2.296.875-4.429 2.761-5.741l16.896-11.756c4.976-3.472 11.401-3.882 16.787-1.094l5.632 2.926a6.479 6.479 0 013.499 5.331 6.456 6.456 0 01-2.789 5.741l-16.95 11.756a16.149 16.149 0 01-9.241 2.898zm12.385-27.695c-2.707 0-5.386.82-7.683 2.406l-16.895 11.756a3.648 3.648 0 00-1.559 3.253 3.68 3.68 0 001.969 3.035l5.604 2.898c4.457 2.297 9.761 1.969 13.862-.875l16.95-11.756a3.642 3.642 0 001.586-3.253 3.681 3.681 0 00-1.969-3.035l-5.632-2.925a13.597 13.597 0 00-6.233-1.504z"
    fill="#002102" />
  <path
    d="M375.75 588.573a3.82 3.82 0 011.64 5.167 3.82 3.82 0 01-5.167 1.641 3.821 3.821 0 01-1.64-5.168 3.851 3.851 0 015.167-1.64z"
    fill="#53C744" />
  <path
    d="M374 597.213c-.82 0-1.64-.192-2.406-.602-1.23-.656-2.16-1.722-2.57-3.062-.41-1.34-.3-2.761.356-3.992.656-1.23 1.722-2.159 3.062-2.57a5.078 5.078 0 013.991.356c1.231.656 2.16 1.722 2.57 3.062.41 1.34.301 2.761-.355 3.992-.656 1.23-1.723 2.159-3.062 2.569a5.33 5.33 0 01-1.586.247zm0-7.656a2.388 2.388 0 00-2.16 1.313c-.3.574-.355 1.23-.164 1.859a2.387 2.387 0 001.203 1.421 2.439 2.439 0 001.859.165 2.391 2.391 0 001.422-1.203 2.441 2.441 0 00.164-1.86 2.389 2.389 0 00-1.203-1.421 2.334 2.334 0 00-1.121-.274z"
    fill="#002102" />
  <path
    d="M414.818 608.831a3.82 3.82 0 011.641 5.167 3.82 3.82 0 01-5.168 1.641 3.82 3.82 0 01-1.64-5.167 3.82 3.82 0 015.167-1.641z"
    fill="#53C744" />
  <path
    d="M413.041 617.471c-.82 0-1.64-.192-2.406-.602-1.23-.656-2.16-1.722-2.57-3.062-.41-1.34-.3-2.761.356-3.992.656-1.23 1.722-2.159 3.062-2.57a5.078 5.078 0 013.991.356c1.231.656 2.16 1.722 2.57 3.062.41 1.34.301 2.761-.355 3.992-.656 1.23-1.722 2.159-3.062 2.569a5.198 5.198 0 01-1.586.247zm0-7.656a2.388 2.388 0 00-2.16 1.313c-.3.574-.355 1.23-.164 1.859a2.387 2.387 0 001.203 1.421 2.439 2.439 0 001.859.165 2.391 2.391 0 001.422-1.203c.629-1.176.137-2.652-1.039-3.281a2.334 2.334 0 00-1.121-.274z"
    fill="#002102" />
  <path
    d="M459.218 483.78a3.82 3.82 0 011.64 5.167 3.819 3.819 0 01-5.167 1.64 3.818 3.818 0 01-1.64-5.167c.956-1.886 3.28-2.597 5.167-1.64z"
    fill="#53C744" />
  <path
    d="M457.441 492.419a5.06 5.06 0 01-2.406-.601c-1.231-.656-2.16-1.722-2.57-3.062-.41-1.34-.301-2.761.355-3.992.656-1.23 1.723-2.159 3.062-2.57a5.08 5.08 0 013.992.356c1.23.656 2.16 1.722 2.57 3.062.41 1.34.301 2.761-.356 3.991-.656 1.231-1.722 2.16-3.062 2.57a5.321 5.321 0 01-1.585.246zm0-7.655a2.389 2.389 0 00-2.16 1.313 2.434 2.434 0 00-.164 1.859 2.383 2.383 0 001.203 1.421c.574.301 1.23.356 1.859.164a2.382 2.382 0 001.421-1.202c.602-1.176.137-2.652-1.038-3.281a2.34 2.34 0 00-1.121-.274z"
    fill="#002102" />
  <path
    d="M498.587 504.203a3.82 3.82 0 011.64 5.167 3.82 3.82 0 01-5.167 1.64 3.82 3.82 0 01-1.64-5.167 3.82 3.82 0 015.167-1.64z"
    fill="#53C744" />
  <path
    d="M496.81 512.842c-.82 0-1.641-.191-2.406-.601-1.23-.657-2.16-1.723-2.57-3.062-.41-1.34-.301-2.762.355-3.992.657-1.23 1.723-2.16 3.062-2.57a5.076 5.076 0 013.992.356c1.23.656 2.16 1.722 2.57 3.062.41 1.339.301 2.761-.355 3.991-.657 1.23-1.723 2.16-3.063 2.57a5.186 5.186 0 01-1.585.246zm.027-7.655a2.391 2.391 0 00-2.16 1.312 2.443 2.443 0 00-.164 1.859 2.391 2.391 0 001.203 1.422 2.464 2.464 0 003.281-1.039c.301-.574.355-1.23.164-1.859a2.388 2.388 0 00-1.203-1.422 2.344 2.344 0 00-1.121-.273zm-64.124 32.005l-1.296 2.5 21.044 10.911 1.296-2.5-21.044-10.911zm-7.315 5.129l-1.296 2.5 21.041 10.913 1.297-2.5-21.042-10.913z"
    fill="#002102" />
  <path
    d="M462.881 574.903l-1.149-2.57c.137-.055 12.85-5.851 22.638-14.025 5.768-4.812 14.325-4.648 19.438.41.328.328.656.683.984 1.066l-2.16 1.804a12.4 12.4 0 00-.792-.875c-4.101-4.046-10.991-4.155-15.666-.246-10.088 8.448-22.747 14.19-23.293 14.436zm-9.186 8.038l-.164-2.816c.137 0 13.561-.93 22.856-7.628l1.64 2.269c-9.951 7.191-23.73 8.12-24.332 8.175zm-67.61 67.884h-2.816v-6.48h2.816v6.48zm0-12.986h-2.816v-6.48h2.816v6.48z"
    fill="#fff" />
  <path
    d="M161.476 104.383L93.947 65.397c-3.855-2.215-7.354-2.516-9.951-1.203l-2.652 1.613L61.905 77.78c-.11.055-.164.192-.11.301.985 2.05 10.144 21.243 10.991 24.77.356 1.504 3.227 16.158 6.534 33.217v8.612c0 4.812 1.75 10.116 4.539 14.819 0 .027.027.054.027.082 3.445 17.798 6.398 32.998 6.48 33.409v.027l10.006 23.621a.241.241 0 00.355.11l22.884-13.342c.109-.055.136-.191.109-.301l-1.695-4.812v-.027c-.437-2.296-.793-4.894-.93-7.464l29.144 32.425c.082.082.219.109.301.055l21.298-13.151c.109-.054.218-.136.328-.191 2.515-1.586 4.046-4.784 4.046-9.295v-70.728c-.027-9.377-6.644-20.86-14.736-25.535z"
    fill="#53C744" />
  <path
    d="M150.376 224.923c-.519 0-1.011-.219-1.394-.629l-25.809-28.734c.11.793.247 1.558.411 2.324l1.64 4.648a1.878 1.878 0 01-.82 2.242l-23.512 13.697-.902-.219a1.767 1.767 0 01-1.121-1.039l-10.143-24.086-6.398-33.054c-2.98-5.085-4.648-10.553-4.648-15.419v-8.421c-5.003-25.699-6.288-32.151-6.506-33.026-.602-2.597-6.835-16.021-10.854-24.442a1.864 1.864 0 01.71-2.378l22.091-13.588c3.335-1.668 7.409-1.23 11.62 1.176l67.528 38.986c8.557 4.948 15.529 17.005 15.529 26.902v70.728c0 4.921-1.722 8.721-4.812 10.689-.191.11-.3.192-.41.246l-21.215 13.123a1.782 1.782 0 01-.985.274zm-31.194-38.631l31.44 34.995 20.314-12.549 1.093 1.23-.874-1.367c2.241-1.422 3.417-4.238 3.417-8.01v-70.728c0-8.721-6.37-19.739-13.916-24.113L93.127 66.763c-3.198-1.859-6.206-2.269-8.42-1.148L63.792 78.492c2.242 4.702 9.76 20.587 10.553 23.95.3 1.339 2.515 12.521 6.561 33.272l.028.355v8.557c0 4.293 1.558 9.378 4.292 13.971l.164.273.082.383 6.425 33.218 9.323 22.035 20.532-11.974-1.394-4.074a56.753 56.753 0 01-.957-7.628l-.219-4.538z"
    fill="#002102" />
  <path
    d="M161.395 104.383L98.104 67.967 66.28 87.952l67.775 35.678 14.244 2.242 21.899-13.014c-2.488-3.554-5.523-6.589-8.803-8.475z"
    fill="#fff" />
  <path
    d="M148.599 127.567l-15.31-2.515-70.263-36.99 35.05-22.01 64.138 36.909c3.391 1.941 6.589 5.058 9.296 8.94l.984 1.422-23.895 14.244zm-14.052-5.523l13.396 2.133 19.876-11.811c-2.187-2.843-4.675-5.112-7.218-6.589l-62.47-35.924-28.625 17.962 65.041 34.229zm19.219 15.447s-27.367 6.452-29.116 7.108c-1.477.547-28.27 22.145-37.401 32.261a4836.77 4836.77 0 003.117 16.075v.028l10.006 23.621c.055.137.219.191.355.109l22.884-13.341c.109-.055.136-.192.109-.301l-1.695-4.812v-.027c-.437-2.297-.793-4.894-.93-7.464l29.144 32.425c.082.082.219.109.301.055l21.298-13.151c.109-.054.218-.136.328-.191 2.515-1.586 4.046-4.785 4.046-9.296v-70.727a23.18 23.18 0 00-.656-5.359l-21.79 12.987z"
    fill="#002102" />
  <path
    d="M173.439 134.924l-16.187 9.792 1.118 1.848 16.187-9.792-1.118-1.848zm-.496 63.375l-16.187 9.794 1.118 1.848 16.187-9.794-1.118-1.848zm-33.065-80.438L72.213 78.793c-8.066-4.648-14.6-.875-14.6 8.42v70.864c0 9.323 6.534 20.642 14.6 25.29l7.71 4.456c1.394.793 2.57 2.597 2.843 4.347.82 5.222 3.855 16.431 14.845 24.606 2.133 1.585 3.828.218 3.199-2.516-.766-3.335-1.531-7.709-1.559-11.892 0-1.86 1.313-2.598 2.926-1.668l37.674 21.762c8.065 4.648 14.599.875 14.599-8.42v-70.865c.027-9.35-6.507-20.668-14.572-25.316z"
    fill="#53C744" />
  <path
    d="M146.412 226.071c-2.297 0-4.784-.738-7.327-2.214l-37.674-21.762c-.246-.137-.383-.165-.465-.192 0 .055-.027.192-.027.438.027 4.155.847 8.584 1.531 11.537.465 2.05-.027 3.8-1.367 4.675-1.23.82-2.898.629-4.402-.492-11.236-8.339-14.517-19.657-15.474-25.645-.191-1.23-1.093-2.652-2.078-3.198l-7.71-4.457C62.917 179.867 56 167.865 56 158.05V87.186c0-5.112 1.804-8.967 5.085-10.854 3.28-1.886 7.518-1.53 11.947 1.012l67.666 39.068c8.503 4.921 15.42 16.896 15.42 26.711v70.864c0 5.113-1.805 8.968-5.086 10.854-1.394.82-2.952 1.23-4.62 1.23zm-45.548-27.421c.684 0 1.422.218 2.133.629l37.674 21.762c3.39 1.941 6.479 2.324 8.694 1.011 2.242-1.285 3.472-4.155 3.472-8.037V143.15c0-8.776-6.179-19.493-13.807-23.894L71.392 80.187c-3.363-1.94-6.48-2.323-8.694-1.011-2.242 1.285-3.472 4.155-3.472 8.038v70.864c0 8.776 6.179 19.493 13.78 23.895l7.709 4.456c1.832 1.066 3.28 3.253 3.636 5.495.875 5.495 3.91 15.885 14.217 23.54.437.328.71.355.738.355-.055 0 .082-.41-.082-1.203-1.039-4.566-1.586-8.667-1.613-12.248 0-1.476.601-2.679 1.64-3.281a3.11 3.11 0 011.613-.437z"
    fill="#002102" />
  <path
    d="M125.473 185.606c11.154-6.44 11.15-27.327-.009-46.653-11.158-19.327-29.245-29.773-40.4-23.333-11.153 6.44-11.15 27.327.01 46.653 11.157 19.327 29.245 29.773 40.399 23.333z"
    fill="#53C744" />
  <path
    d="M118.06 188.917c-4.156 0-8.749-1.367-13.479-4.101-16.13-9.323-29.28-32.069-29.28-50.715 0-9.35 3.226-16.349 9.076-19.712 5.851-3.39 13.534-2.652 21.599 1.996 16.13 9.323 29.28 32.069 29.28 50.715 0 9.323-3.226 16.349-9.076 19.712-2.406 1.421-5.167 2.105-8.12 2.105zm-25.535-73.79c-2.488 0-4.757.575-6.753 1.723-4.949 2.843-7.655 8.995-7.655 17.278 0 17.744 12.494 39.397 27.859 48.282 7.19 4.156 13.861 4.867 18.809 1.996 4.949-2.843 7.656-8.995 7.656-17.279 0-17.743-12.495-39.396-27.86-48.281-4.292-2.488-8.393-3.719-12.056-3.719z"
    fill="#fff" />
  <path
    d="M133.152 165.569l-28.215-13.588a1.797 1.797 0 01-.984-1.914l5.468-28.925 2.761.519-5.304 28.133 27.504 13.232-1.23 2.543z"
    fill="#fff" />
  <path
    d="M106.364 149.73l-2.131 1.842 25.533 29.534 2.13-1.841-25.532-29.535zm89.123 12.995h-2.816v-6.48h2.816v6.48zm0-12.986h-2.816v-6.48h2.816v6.48zm12.494 78.191h-2.816v-6.452h2.816v6.452zm0-12.959h-2.816v-6.48h2.816v6.48zm0-12.987h-2.816v-6.479h2.816v6.479z"
    fill="#fff" />
  <path
    d="M222.771 213.112h-6.452v-2.816h6.452v2.816zm-12.931 0h-6.48v-2.816h6.48v2.816zm-12.987 0h-6.479v-2.816h6.479v2.816z"
    fill="#fff" />
  <mask id="mask5_272_35" style="mask-type:luminance" maskUnits="userSpaceOnUse" x="9" y="454" width="210" height="121">
    <path
      d="M113.897 574.473c57.498 0 104.109-26.917 104.109-60.12 0-33.203-46.611-60.12-104.109-60.12S9.788 481.15 9.788 514.353c0 33.203 46.611 60.12 104.109 60.12z"
      fill="#fff" />
  </mask>
  <g mask="url(#mask5_272_35)" fill="#002102">
    <path
      d="M277.131 376.218L-96.726 591.78l.806 1.397 373.857-215.562-.806-1.397zm4.433 2.255L-92.292 594.035l.806 1.398L282.37 379.871l-.806-1.398zm4.074 2.501L-88.219 596.579l.806 1.397 373.857-215.605-.806-1.397zm4.42 2.414L-83.799 598.95l.806 1.397 373.856-215.562-.805-1.397zm3.721 2.596L-80.077 601.546l.806 1.398 373.856-215.562-.806-1.398zm4.433 2.383l-373.9 215.475.806 1.398 373.899-215.476-.805-1.397zm4.012 2.477L-71.633 606.406l.806 1.397 373.856-215.562-.805-1.397zm4.504 2.296L-67.128 608.702l.806 1.397 373.856-215.562-.806-1.397zm4.02 2.513L-63.108 611.215l.805 1.397L311.554 397.05l-.806-1.397zm4.493 2.259L-58.615 613.474l.806 1.397 373.856-215.562-.806-1.397zm4.012 2.608L-54.603 616.082l.805 1.397L320.06 401.917l-.806-1.397zm4.505 2.297L-50.099 618.379l.806 1.398 373.857-215.562-.806-1.398zm3.722 2.596L-46.376 620.975l.806 1.397L328.286 406.81l-.806-1.397zm4.41 2.265L-41.967 623.24l.806 1.397 373.856-215.562-.805-1.397zm4.019 2.51L-37.947 625.75l.805 1.398 373.857-215.562-.806-1.398zm4.51 2.419L-33.437 628.169l.805 1.397 373.857-215.562-.806-1.397zm4.014 2.388L-29.424 630.557l.806 1.398 373.856-215.562-.805-1.398zm-126.385-72.689l-373.857 215.562.806 1.397 373.856-215.561-.805-1.398zm4.48 2.31l-373.856 215.562.806 1.398 373.856-215.562-.806-1.398zm3.731 2.509l-373.857 215.562.806 1.398 373.856-215.562-.805-1.398zm4.425 2.348l-373.857 215.562.806 1.397L231.489 350.87l-.805-1.397zm4.011 2.6l-373.856 215.562.806 1.397L235.501 353.47l-.806-1.397zm4.567 2.311l-373.9 215.519.806 1.397 373.899-215.518-.805-1.398zm3.965 2.415L-130.63 572.361l.806 1.398 373.856-215.562-.805-1.398zm4.479 2.437L-126.15 574.798l.805 1.397 373.857-215.562-.806-1.397zm4.081 2.527l-373.899 215.519.805 1.398 373.9-215.519-.806-1.398zm4.443 2.281l-373.856 215.562.806 1.397 373.856-215.561-.806-1.398zm3.73 2.507l-373.856 215.562.805 1.397 373.857-215.562-.806-1.397zm4.393 2.453l-373.856 215.561.806 1.398 373.856-215.562-.806-1.397zm4.02 2.511l-373.856 215.562.805 1.397 373.857-215.562-.806-1.397zm4.519 2.32l-373.857 215.562.806 1.397 373.856-215.562-.805-1.397z" />
    <path
      d="M276.905 376.229L-96.951 591.791l.805 1.398 373.857-215.562-.806-1.398zm126.513 72.776L29.562 664.567l.805 1.398 373.857-215.562-.806-1.398zm4.424 2.488l-373.9 215.476.806 1.397 373.899-215.475-.805-1.398zm4.012 2.477L37.998 669.532l.806 1.398L412.66 455.368l-.806-1.398zm4.482 2.309L42.48 671.841l.805 1.398 373.857-215.562-.806-1.398zm3.793 2.485L46.272 674.369l.806 1.397 373.857-215.605-.806-1.397zm4.363 2.355L50.636 676.681l.805 1.397 373.857-215.562-.806-1.397zm4.012 2.618L54.647 679.299l.806 1.397L429.31 465.134l-.806-1.397zm4.504 2.296L59.151 681.595l.806 1.398 373.857-215.562-.806-1.398zm4.001 2.558l-373.9 215.476.806 1.397 373.899-215.475-.805-1.398zm4.513 2.188L67.666 686.341l.806 1.397 373.856-215.562-.806-1.397zm4.011 2.633L71.677 688.974l.805 1.398L446.34 474.81l-.806-1.398zm4.504 2.298L76.181 691.272l.805 1.397 373.857-215.562-.806-1.397zm3.706 2.5L79.887 693.771l.805 1.398L454.55 479.607l-.806-1.397zm4.426 2.349L84.313 696.12l.805 1.398 373.857-215.562-.806-1.397zm4.012 2.62L88.324 698.741l.806 1.397 373.856-215.562-.805-1.397zm4.59 2.334l-373.9 215.518.806 1.398L467.576 486.91l-.805-1.397zm3.942 2.363L96.856 703.438l.806 1.397L471.52 489.273l-.806-1.397zm-121.904-70.367L-25.048 633.071l.806 1.397 373.856-215.562-.805-1.397zm3.728 2.63l-373.9 215.476.806 1.397 373.9-215.475-.806-1.398zm4.42 2.303L-16.899 638.003l.805 1.398 373.857-215.562-.806-1.397zm4.084 2.536l-373.9 215.519.806 1.398 373.9-215.519-.806-1.398zm4.439 2.284L-8.376 642.824l.806 1.397 373.856-215.562-.806-1.397zm4.003 2.423L-4.373 645.247l.806 1.397 373.856-215.561-.806-1.398zm4.569 2.334L.195 647.625l.806 1.397 373.857-215.605-.806-1.398zm3.96 2.52L4.155 650.101l.806 1.397 373.856-215.562-.805-1.397zm4.481 2.309L8.637 652.41l.805 1.398L383.3 438.246l-.806-1.398zm3.723 2.597L12.359 655.007l.806 1.397 373.857-215.562-.806-1.397zm4.418 2.451L16.777 657.458l.806 1.397L391.44 443.293l-.805-1.397zm4.019 2.512L20.797 659.97l.806 1.397 373.856-215.562-.806-1.397zm4.525 2.339l-373.9 215.476.806 1.397 373.899-215.475-.805-1.398z" />
    <path d="M403.152 449.229L29.296 664.791l.806 1.397 373.856-215.562-.806-1.397z" />
  </g>
  <path
    d="M104.848 383.724l1.367-59.628c0-.027 0-.027-.027-.027-19.33-.492-38.85 2.215-55.992 8.147-.027 0-.027.028 0 .055l54.625 51.48s.027 0 .027-.027z"
    fill="#fff" />
  <path
    d="M104.547 385.392l-.711-.629-55.198-52.027.328-1.613.793-.273c17.005-5.878 36.553-8.722 56.456-8.202l1.367.027.027 1.394-1.367 60.53-1.695.793zm-51.726-52.574l50.687 47.762 1.258-55.144c-18.208-.3-36.116 2.215-51.945 7.382z"
    fill="#002102" />
  <path
    d="M104.875 408.713l69.579-41.666v-.054c-18.673-11.319-43.278-17.306-68.212-17.962-.027 0-.027 0-.027.027l-1.367 59.628c0 .027.027.027.027.027z"
    fill="#53C744" />
  <path
    d="M105.039 410.353l-1.586-.765-.027-.902 1.394-61.022 1.394-.028c26.274.684 50.77 7.136 68.951 18.154l.683.41v1.585l-.683.465-69.497 41.638-.629.465zm2.542-59.873l-1.285 55.745 65.424-39.205c-17.197-9.897-39.834-15.72-64.139-16.54z"
    fill="#002102" />
  <path
    d="M104.848 408.686l.082 47.571c0 .027.027.027.027.027l69.497-38.986s.028 0 .028-.028v-50.223c0-.027-.028-.027-.028-.027l-69.606 41.666z"
    fill="#002102" />
  <path
    d="M104.957 457.897l-1.449-.793-.028-.848-.082-48.418.793-.41 70.181-42.048 1.449.82.027.82v51.098l-.793.41-70.098 39.369zm1.285-48.419l.054 44.427 66.736-37.455v-46.997l-66.79 40.025z"
    fill="#002102" />
  <path
    d="M202.341 480.178v-46.149c0-.027 0-.027-.028-.027l-97.192 1.804c-.027 0-.027 0-.027.027l-.137 59.491h.219l20.996 54.16s.028 0 .028.027c17.114-2.46 33.327-7.545 46.723-15.255 18.7-10.799 28.379-24.032 29.254-38.166l.082-.738c0-.028.164-13.943.082-15.174z"
    fill="#53C744" />
  <path
    d="M125.844 550.987l-.738-.492-20.833-53.749-.683.027.137-62.362 100.008-1.859.027 1.449v46.122c.055 1.477-.055 13.779-.055 15.201l-.082.875c-.902 14.873-11.264 28.46-29.937 39.232-13.068 7.546-29.39 12.877-47.215 15.447l-.629.109zm-19.466-56.51l.137.328 20.614 53.12c17.06-2.57 32.616-7.709 45.138-14.927 17.825-10.28 27.695-23.102 28.542-37.045l.082-.793c.055-5.441.11-14.053.055-14.9v-44.837l-94.431 1.75-.137 57.304z"
    fill="#002102" />
  <path
    d="M202.15 496.062l.082-.738s.136-13.916.054-15.146v-46.149c0-.027 0-.027-.027-.027l-20.806.382h-.027c-16.075 12.248-49.539 38.166-49.703 38.303l-5.577 17.497-.137 58.89.137.355s.027.028.054.028c17.115-2.461 33.327-7.546 46.696-15.256 18.7-10.744 28.379-24.004 29.254-38.139z"
    fill="#002102" />
  <path
    d="M125.298 551.042l-.684-1.941.219-59.327 5.44-17.114-.109-.383.574-.574.766-.602c10.307-7.983 35.705-27.613 49.074-37.81l.383-.301h.492l22.227-.41.028 1.449v46.149c.082 1.148-.055 13.725-.055 15.146l-.082.848c-.93 14.927-11.264 28.488-29.937 39.287-13.068 7.545-29.39 12.877-47.215 15.447l-1.121.136zm2.269-60.612l-.137 57.468c16.896-2.57 32.343-7.71 44.782-14.873 17.826-10.279 27.695-23.101 28.543-37.045l.082-.792c.055-5.441.109-14.053.055-14.901V435.45l-18.974.356c-13.615 10.416-38.521 29.663-48.692 37.537l-.273.219-5.386 16.868z"
    fill="#002102" />
  <path
    d="M105.039 435.806l21.106 54.406.028.028c17.114-2.461 33.326-7.546 46.723-15.256 38.576-22.282 39.178-58.179 1.777-80.87h-.027l-69.58 41.692h-.027z"
    fill="#fff" />
  <path
    d="M125.298 491.77l-.438-1.039-21.298-54.925.329-.93.464-.3 70.4-42.185.793.574c18.29 11.1 28.323 25.836 28.159 41.419-.164 15.857-10.853 30.675-30.1 41.775-13.069 7.546-29.391 12.877-47.216 15.447l-1.093.164zm-18.509-55.363l20.286 52.301c17.059-2.57 32.643-7.71 45.137-14.927 18.345-10.581 28.515-24.579 28.679-39.397.164-14.353-9.131-28.05-26.218-38.658l-67.884 40.681z"
    fill="#002102" />
  <path
    d="M126.009 526.984l-16.978-21.052-4.101-10.58v-.027l-66.408-38.331-.054-2.542H34.12l-3.281-1.887h-.028a86.455 86.455 0 00-3.116 1.914L1.45 470.391v22.992c-.082 14.873 9.733 29.773 29.39 41.147 25.808 14.9 62.17 19.985 95.196 15.255.028 0 .028 0 .028-.027l-.028-.055-.027-22.719z"
    fill="#53C744" />
  <path
    d="M101.485 552.929c-26.492 0-52-6.015-71.384-17.197-19.493-11.237-30.183-26.301-30.1-42.349v-23.84l.792-.41 26.137-15.857c1.012-.629 2.05-1.285 3.144-1.914l.328-.191h.766l3.335 1.913h5.359l.054 3.117 66.08 38.166.246.52 4.019 10.389 17.142 21.161v23.019l.164.383-.684 1.258-.71.109a178.482 178.482 0 01-24.688 1.723zM2.816 471.183v22.2c-.082 15.037 10.116 29.199 28.68 39.916 24.168 13.943 59.737 19.766 93.091 15.255v-21.079l-16.978-21.051v-.246l-3.827-9.87L37.1 457.814l-.027-1.941h-3.527l-.3-.273-2.434-1.395c-.82.492-1.613.985-2.406 1.477l-25.59 15.501z"
    fill="#002102" />
  <path d="M68.623 547.816c16.076 3.062 33.218 3.719 49.758 1.969v-31.003l-10.963-13.588-2.679-6.89H68.623v49.512z"
    fill="#002102" />
  <path
    d="M100.227 552.163c-10.799 0-21.598-.984-31.878-2.952l-1.148-.219V496.91h38.494l2.953 7.6 11.127 13.807v32.753l-1.257.136c-6.043.629-12.167.957-18.291.957zm-30.21-5.522c15.119 2.761 31.304 3.417 46.942 1.886v-29.226l-10.963-13.588v-.246l-2.242-5.741H69.99v46.915h.027zm-32.78-9.214c5.687 2.762 11.756 5.086 18.127 7.027V495.16H37.237v42.267z"
    fill="#002102" />
  <path
    d="M56.758 546.34l-1.805-.547c-6.534-1.968-12.686-4.347-18.317-7.081l-.793-.382v-44.564h20.942v52.574h-.027zm-18.127-9.788c4.758 2.27 9.897 4.265 15.31 5.988v-45.985h-15.31v39.997z"
    fill="#002102" />
  <path
    d="M126.036 526.929l-21.106-54.406-74.09-42.786h-.028c-39.177 22.637-39.177 59.327.028 81.964 25.808 14.9 62.17 19.985 95.196 15.256v-.028z"
    fill="#fff" />
  <path
    d="M101.486 530.128c-26.465 0-52-6.015-71.384-17.197C10.69 501.722 0 486.74 0 470.746c0-15.993 10.69-30.975 30.1-42.185l.766-.437.766.492 74.391 42.951.246.519 21.352 55.062-.711 1.203-.71.082a183.75 183.75 0 01-24.715 1.695zm-70.673-98.751c-18.044 10.608-27.996 24.579-27.996 39.369 0 14.955 10.198 29.09 28.706 39.752 24.06 13.889 59.355 19.712 92.572 15.338l-20.286-52.328-72.996-42.131z"
    fill="#002102" />
  <path
    d="M50.224 315.512c-6.89 2.379-13.424 5.304-19.357 8.722-.027 0-.027.027 0 .054l73.872 42.65c.027.027.054-.027.027-.055l-54.515-51.371h-.027z"
    fill="#53C744" />
  <path
    d="M105.121 368.797l-1.121-.656-74.527-43.033-.055-1.64.71-.438c5.879-3.39 12.44-6.342 19.521-8.803l.684-.355.71.519 55.555 52.328-1.477 2.078zm-71.465-44.536l61.514 35.514-45.275-42.65c-5.823 2.05-11.264 4.456-16.24 7.136z"
    fill="#002102" />
  <path
    d="M30.84 324.288v105.476l74.035 42.732c.028 0 .028 0 .028-.028l-.137-105.558v-.027L30.867 324.26s-.027 0-.027.028z"
    fill="#53C744" />
  <path
    d="M104.93 474.136l-.738-.383-74.747-43.169-.027-.847V323.468l1.394-.848.738.383 74.61 43.06.027.847.137 106.351-1.394.875zm-72.696-45.165l71.274 41.146-.136-102.387-71.138-41.036v102.277z"
    fill="#002102" />
  <path d="M156.465 404.994l7.682-4.784v-26.684l-7.682 4.621v26.847z" fill="#53C744" />
  <path
    d="M155.043 407.51v-30.183l10.526-6.288v29.964l-10.526 6.507zm2.816-28.57v23.539l4.894-3.035v-23.43l-4.894 2.926z"
    fill="#002102" />
  <path d="M196.353 460.357h-2.816v49.348h2.816v-49.348zm-45.056-77.098h-2.816v22.965h2.816v-22.965z" fill="#53C744" />
  <path
    d="M38.659 328.416h-2.816v105.476h2.816V328.416zm43.333 25.098h-2.816V458.99h2.816V353.514zm36.744 113.951h-2.816v37.045h2.816v-37.045z"
    fill="#002102" />
  <path d="M136.207 490.239h-2.816v54.215h2.816v-54.215z" fill="#53C744" />
</svg>