<svg width="100" height="64" viewBox="0 0 100 64" fill="none" xmlns="http://www.w3.org/2000/svg"><path fill-rule="evenodd" clip-rule="evenodd" d="M45.816 43.51V25.546l-1.747-1.845-1.788 1.817.036 26.351H63.51v-8.383h10.81v19.02H0V40.12h7.38v-9.392l.364-.468c4.695-6.067 13.144-8.88 13.167-8.888l.577-.196.57.214c8.949 3.372 13.007 9.824 13.016 9.842l.273.427v11.878H10.81v12.11H7.38v-12.11H3.435v15.536h67.45V46.904h-3.944v8.383H38.9l-.042-31.176 2.858-2.904-2.762-2.913V9.988l3.694-2.454.874-4.399c-.596-.24-1.02-.718-1.02-1.508S43.233 0 44.134 0c.9 0 1.628.836 1.628 1.627 0 .79-.423 1.268-1.019 1.508l.878 4.44 3.777 2.272v8.434l-2.93 2.98 2.789 2.94v19.304h-3.44v.004zm-10.469 3.425h-3.43v8.72h3.43v-8.72zm7.034-29.972l1.724 1.817 1.852-1.88v-5.117l-1.847-1.11-1.729 1.15v5.14zm-31.57 23.156h21.106v-7.43c-.929-1.276-4.255-5.352-10.492-7.87-1.756.669-7.193 2.981-10.615 7.08v8.22z" fill="#E5D675"/><path d="M108.632 51.6c.728 0 1.36.12 1.896.36.544.24.96.584 1.248 1.032.288.448.432.98.432 1.596" fill="#E5D675"/><path fill-rule="evenodd"/></svg>