<svg width="150" height="150" viewBox="0 0 190 149" fill="none" xmlns="http://www.w3.org/2000/svg"><g opacity=".2" clip-path="url(#clip0_236_165862)" fill="#fff"><path d="M55.893-7.951c-5.168 1.126-9.886 5.086-11.87 9.98-.649 1.609-1.075 5.193-3.427 28.88-2.64 26.588-2.685 27.037-2.063 27.796.404.494 1.071.804 2.003.897.933.092 1.647-.08 2.14-.485.76-.622.804-1.071 3.256-25.76 1.574-15.849 2.713-25.918 3.096-27.31 1.06-4.009 3.407-6.566 7.38-7.95l1.988-.709 52.772 5.136 52.768 5.171-1.263 1.479c-.676.84-1.714 2.514-2.287 3.713l-1.055 2.197-3.045 30.662-3.045 30.662-4.685-.57-4.686-.57-.793-3.6c-3.751-17.006-16.722-30.708-33.485-35.371-3.833-1.078-12.19-1.908-16.16-1.605-11.134.812-22.421 5.968-30.026 13.72-4.537 4.607-8.227 10.168-10.42 15.739l-.792 2.013-10.514-.87-10.515-.87-1.932.855c-2.548 1.072-5.08 3.4-6.025 5.539-1.072 2.369-1.266 6.778-.401 8.956 1.594 3.96 5.042 6.464 9.634 6.92l2.59.257-1.92 19.337-1.92 19.336-13.122-1.303c-12.673-1.258-13.16-1.272-13.88-.681-.722.591-.804 1.071-1.528 8.357-.658 6.63-.695 8.056-.321 9.906 1.084 5.234 5.006 9.982 9.97 11.974 1.643.652 8.162 1.369 62.823 6.797 54.66 5.428 61.193 6.007 62.933 5.692 5.258-.978 10.037-4.862 12.13-9.78.82-1.941 1.013-3.526 3.622-29.803l2.757-27.762 2.59.257c6.664.662 11.664-3.34 12.316-9.9.301-3.039-.246-5.255-1.873-7.474-2.091-2.823-4.198-4.078-7.807-4.61l-3.025-.44 2.192-22.065 2.191-22.065 13.121 1.304c12.672 1.258 13.159 1.271 13.881.68.721-.59.803-1.07 1.523-8.322.597-6.008.703-8.124.401-9.654-.977-5.258-4.861-10.037-9.779-12.13-1.976-.823-4.113-1.07-63.197-6.903-58.355-5.795-61.293-6.052-63.216-5.65zM181.309 10.78c1.772 1.118 3.669 3.433 4.392 5.283.75 1.923.918 5.148.476 9.602l-.371 3.73-11.084-1.101-11.118-1.105.715-5.09c.381-2.786.907-5.628 1.183-6.298 1.231-2.912 4.73-5.842 7.792-6.48 1.923-.401 6.443.431 8.015 1.46zm-74.151 31.063c7.998 1.98 15.487 6.63 20.988 13.034 4.064 4.727 7.102 10.295 8.56 15.635 1.277 4.695 1.311 4.35-.83 4.137-2.348-.233-4.871.248-7.039 1.358l-1.688.844-.304-1.495c-.815-4.44-4.213-10.95-7.371-14.262-5.625-5.858-11.649-8.758-19.798-9.567-6.492-.645-11.901.457-17.575 3.52-7.625 4.09-13.627 12.21-15.137 20.395-.702 3.905-2.354 6.147-5.481 7.44l-1.888.755-13.985-1.389c-13.501-1.34-14.015-1.427-15.121-2.234-3.548-2.549-2.981-7.549 1.054-9.206 1.418-.59 1.94-.574 12.765.327 8.508.705 11.422.855 11.87.55.3-.213.949-1.474 1.397-2.824 2.77-7.885 6.754-13.592 13.17-18.848 10.514-8.614 23.139-11.44 36.413-8.17zm-4.318 16.1c1.094.213 3.184.944 4.648 1.647 6.721 3.248 11.749 9.501 13.56 16.899.644 2.644.655 3.238.196 7.865-.453 4.558-.591 5.242-1.691 7.539-1.765 3.73-3.845 6.418-7.071 9.061-5.96 4.883-13.078 6.687-20.534 5.214-9.13-1.813-16.797-9.235-19.113-18.566-.724-2.897-.748-3.352-.278-8.083.46-4.627.587-5.207 1.738-7.673 3.313-7.029 9.507-12.167 16.978-14.006 2.572-.616 6.957-.878 8.766-.489.477.117 1.741.382 2.801.592zm60.33 25.937c3.63 2.418 3.202 7.432-.778 9.233-1.208.578-1.971.537-12.727-.357-8.749-.73-11.595-.873-12.043-.568-.335.21-.945 1.44-1.352 2.725-2.178 6.479-6.013 12.444-11.133 17.306-1.463 1.389-1.798 1.948-1.908 3.053-.181 1.83.662 2.82 2.526 3.006 1.209.12 1.644-.046 2.755-1.052 4.503-3.911 9.115-10.323 11.683-16.17l1.483-3.34 4.706.363 4.706.363-2.805 27.199c-2.137 20.465-2.975 27.496-3.382 28.432-1.341 2.97-4.792 5.766-7.971 6.531-1.036.246-12.752-.813-53.921-4.797l-52.561-5.15 1.355-1.713c.76-.971 1.8-2.681 2.294-3.783.93-2 1-2.69 3.698-29.865l2.764-27.83 4.686.57 4.685.569.794 3.6c3.605 16.364 15.077 29.011 31.585 34.834 3.367 1.207 13.36 2.408 17.641 2.136 4.423-.293 9.553-1.388 13.647-2.934 3.693-1.377 4.187-1.781 4.351-3.438.162-1.623-.246-2.431-1.583-3.017-1.036-.452-1.388-.417-3.998.579-10.984 4.21-22.979 3.856-33.202-.995-9.256-4.407-17.287-13.085-20.943-22.619-.722-1.85-2.193-7.052-2.142-7.57.007-.07.843-.056 1.844.044 2.313.23 4.871-.249 7.001-1.328l1.65-.812.755 2.934c2.644 9.887 10.508 18.13 20.116 21.107 3.346 1.064 9.493 1.675 12.983 1.289 12.788-1.31 24.171-11.652 26.407-23.984.867-4.865 3.655-7.657 8.047-7.988.773-.062 7.168.503 14.177 1.199 12.493 1.31 12.801 1.376 14.11 2.238zM30.275 134.844c-.666 6.698-1.779 9.482-4.664 11.846-2.581 2.115-4.124 2.554-7.888 2.18-2.728-.271-3.508-.488-4.651-1.264-4.515-2.993-5.716-6.704-4.896-14.957l.367-3.695 11.049 1.098 11.05 1.097-.367 3.695z"/><path d="M107.485 69.458c-.301.215-4.044 4.201-8.308 8.87-4.265 4.667-7.977 8.692-8.243 8.91-.459.407-.94-.024-3.465-3.03-2.71-3.268-3-3.506-4.346-3.64-1.9-.188-2.886.62-3.078 2.554-.14 1.416-.023 1.637 4.148 6.689 4.074 4.972 4.36 5.245 5.638 5.372.76.075 1.568.016 1.823-.098.256-.114 4.858-5.027 10.254-10.907 8.798-9.588 9.788-10.78 9.908-11.988.172-1.727-.665-2.786-2.426-2.96-.725-.073-1.574.052-1.905.228zm-59.099 58.571c-.493.405-.803 1.071-.896 2.004-.093.932.08 1.646.485 2.14.59.721 1.07.804 13.052 1.994 11.982 1.189 12.47 1.203 13.19.612.494-.404.804-1.071.897-2.003.092-.933-.08-1.647-.485-2.141-.591-.721-1.071-.803-13.053-1.993-11.982-1.19-12.468-1.204-13.19-.613zm60.772 6.036c-.493.404-.803 1.07-.896 2.003-.092.932.081 1.647.485 2.14.591.721 1.071.804 13.053 1.994 11.981 1.19 12.468 1.203 13.189.612.494-.404.804-1.071.897-2.003.092-.932-.081-1.647-.485-2.14-.591-.722-1.071-.804-13.053-1.994-11.981-1.19-12.468-1.203-13.19-.612zm-61.868 5.014c-.494.404-.805 1.071-.897 2.003-.093.932.08 1.647.485 2.14.59.722 1.07.804 13.052 1.994s12.469 1.203 13.19.613c.494-.405.804-1.071.896-2.004.093-.932-.08-1.647-.484-2.14-.591-.721-1.071-.804-13.053-1.994-11.982-1.19-12.469-1.203-13.19-.612zm60.771 6.035c-.493.404-.803 1.071-.896 2.003-.093.933.08 1.647.485 2.141.591.721 1.071.803 13.052 1.993 11.982 1.19 12.469 1.204 13.19.613.494-.405.804-1.071.897-2.003.092-.933-.081-1.647-.485-2.141-.591-.721-1.071-.804-13.053-1.993-11.982-1.19-12.468-1.204-13.19-.613zM71.506 7.582c-.493.405-.804 1.071-.896 2.004-.093.932.08 1.646.485 2.14.622.76 1.07.804 32.389 3.914 31.318 3.11 31.767 3.154 32.526 2.532.494-.404.804-1.07.897-2.003.092-.932-.081-1.647-.485-2.14-.622-.76-1.071-.804-32.389-3.914-31.319-3.11-31.768-3.155-32.527-2.533zm-1.097 11.05c-.494.404-.804 1.07-.896 2.003-.182 1.83.658 2.855 2.488 3.037 1.83.181 2.855-.658 3.036-2.488.093-.933-.08-1.647-.485-2.14-.404-.494-1.07-.804-2.003-.897-.932-.092-1.647.08-2.14.485zm11.049 1.098c-.493.404-.803 1.07-.896 2.002-.093.933.08 1.647.485 2.14.622.76 1.07.805 21.34 2.817 20.268 2.013 20.717 2.058 21.477 1.436.493-.404.803-1.071.896-2.003.092-.933-.081-1.647-.485-2.14-.622-.76-1.071-.805-21.34-2.817-20.269-2.013-20.718-2.058-21.477-1.436zm49.723 4.937c-.494.404-.804 1.07-.896 2.003-.093.932.08 1.647.484 2.14.405.494 1.071.804 2.004.897.932.092 1.647-.08 2.14-.485.493-.404.804-1.07.896-2.003.093-.932-.08-1.647-.485-2.14-.404-.494-1.07-.804-2.003-.897-.932-.092-1.647.08-2.14.485z"/></g><defs><clipPath id="clip0_236_165862"><path fill="#fff" transform="rotate(5.671 190.479 168.228)" d="M0 0h177.661v177.661H0z"/></clipPath></defs></svg>