<svg width="150" height="150" viewBox="0 0 190 149" fill="none" xmlns="http://www.w3.org/2000/svg"><g opacity=".2" clip-path="url(#clip0_236_165876)" fill="#fff"><path d="M39.098-8.175c-.775.264-2.042 1.024-2.786 1.665-2.752 2.35-1.936-3.834-9.707 74.73l-6.99 70.673 11.028 13.451 11 13.413 45.114 4.463c37.495 3.709 45.291 4.411 46.275 4.1 1.614-.487 3.747-2.081 4.75-3.616.838-1.245.925-1.781 1.89-10.504l1.015-9.229 1.587 1.86c.888 1.007 2.177 2.088 2.892 2.431 1.727.783 5.375 1.076 6.956.586 1.968-.623 4.12-2.419 5.154-4.257 1.12-2.035 1.409-5.649.608-7.873-.291-.846-3.269-4.818-7.576-10.147l-7.073-8.701 3.625-36.652 3.626-36.652-3.035-.3-3.035-.3-3.325 33.617-3.328 33.651-15.405-18.786-15.434-18.823 7.04-5.773 7.04-5.773 3.54.35c3.912.387 5.756-.01 7.746-1.549 2.396-1.84 3.717-5.557 3.157-8.847-.258-1.523-1.22-2.81-12.152-16.217-8.352-10.224-12.291-14.801-13.317-15.447-1.093-.653-2.051-.952-3.804-1.126-2.768-.24-4.595.329-6.437 2.087-2.173 1.999-2.526 2.815-3.078 7.016l-.518 3.865-22.643 18.598-22.68 18.628-3.406-.337c-1.888-.187-3.928-.218-4.592-.046-2.123.471-4.057 1.778-5.256 3.566-1.03 1.465-1.221 2.024-1.438 4.216-.19 1.922-.078 2.853.358 3.951.747 1.742 23.443 29.421 25.012 30.428.83.559 1.859.831 3.815 1.024 3.034.3 4.015.023 6.275-1.831 2.294-1.85 2.9-3.152 3.307-7.265l.35-3.541 8.707-7.14 8.708-7.14 21.268 25.938 21.268 25.937-1.12 11.329c-1.084 10.959-1.158 11.36-1.919 12.17l-.761.81-42.283-4.182-42.283-4.182.726-8.373c.666-7.765.7-8.443.148-9.757a10.038 10.038 0 00-3.615-4.409c-1.181-.798-1.852-.898-9.598-1.767l-8.348-.962 6.727-68.01 6.73-68.044.846-.63.849-.666 52.971 5.24 53.006 5.243.587.943c.591.91.575 1.419.008 7.15l-.614 6.205 3.069.303 3.034.3.609-7.191c.696-8.069.568-8.83-1.741-11.306-2.282-2.405 1.852-1.86-57.492-7.73C42.6-8.475 40.44-8.655 39.098-8.175zm78.955 54.422c12.46 15.158 12.339 15.01 10.378 16.587-.818.702-1.162.736-4.028.452l-3.136-.31-9.479-11.56-9.51-11.598.293-2.968c.284-2.866.334-3.03 1.372-3.882.592-.486 1.445-.844 1.883-.8.574.056 3.75 3.741 12.227 14.079zm-10.836 9.04l8.355 10.19L94.155 83.04l-21.38 17.531-8.413-10.298-8.45-10.267 21.306-17.47c11.71-9.601 21.373-17.464 21.475-17.454.1.01 3.936 4.611 8.524 10.206zm45.057 91.791c-.223 2.259-2.188 3.529-4.144 2.655-.685-.306-9.063-10.26-25.926-30.825L97.29 88.524l2.408-1.975 2.409-1.975 25.127 30.644c23.79 29.013 25.15 30.747 25.04 31.86zM59.727 94.104l9.48 11.561-.31 3.135c-.284 2.867-.385 3.197-1.234 3.862-1.93 1.614-1.808 1.762-14.231-13.427-8.477-10.338-11.469-14.174-11.412-14.748.043-.438.562-1.204 1.155-1.69 1.037-.85 1.209-.868 4.075-.584l2.967.293 9.51 11.598zm-18.922 48.792c1.285.774 1.411 1.91.777 7.295l-.592 4.947-5.62-6.855-5.622-6.855 5.126.507c3.102.307 5.449.675 5.931.961z"/><path d="M75.731 12.166l-.3 3.035 17.365 1.718 17.365 1.717.3-3.034.3-3.035-17.365-1.718-17.365-1.717-.3 3.034zm46.107 11.302l-3.223 2.644 1.974 2.408 1.979 2.375 3.146-2.549c1.741-1.428 3.163-2.717 3.183-2.92.033-.337-3.326-4.584-3.629-4.614-.102-.01-1.648 1.164-3.43 2.656zm11.009 6.776l-6.485 5.317 1.823 2.223c1.003 1.223 1.958 2.236 2.161 2.256.438.044 12.74-10.043 12.783-10.482.033-.337-3.326-4.585-3.629-4.615-.101-.01-3.096 2.384-6.653 5.3zm10.971 6.805c-5.113 4.193-9.354 7.825-9.371 7.994-.02.202.787 1.337 1.79 2.56l1.823 2.223 9.711-7.994 9.742-7.957-1.823-2.223c-1.003-1.223-1.958-2.237-2.16-2.257-.169-.016-4.561 3.43-9.712 7.654zM45.3 23.797l-.301 3.035 23.266 2.301 23.265 2.301.3-3.034.3-3.035-23.265-2.301L45.6 20.762l-.3 3.035zm-1.435 14.499l-.3 3.035 17.534 1.734 17.533 1.734.3-3.035.3-3.034L61.7 36.996 44.165 35.26l-.3 3.035zm-1.401 14.162l-.3 3.034 11.801 1.168 11.802 1.167.3-3.035.3-3.034-11.801-1.168-11.802-1.167-.3 3.035zM41.03 66.957l-.3 3.034 4.552.45 4.552.45.3-3.034.3-3.034-4.552-.45-4.552-.451-.3 3.035zm-5.703 57.658l-.3 3.035 40.462 4.002 40.462 4.002.3-3.034.3-3.035-40.462-4.002-40.462-4.003-.3 3.035zm22.132 13.766l-.3 3.034 34.56 3.419 34.562 3.418.3-3.034.301-3.035-34.562-3.418-34.561-3.419-.3 3.035zm-1.134 11.464l-.3 3.035 34.561 3.418 34.561 3.419.301-3.035.3-3.035-34.562-3.418-34.561-3.419-.3 3.035z"/></g><defs><clipPath id="clip0_236_165876"><path fill="#fff" transform="rotate(5.649 120.018 167.56)" d="M0 0h173.481v173.481H0z"/></clipPath></defs></svg>