<svg width="150" height="150" viewBox="0 0 111 156" fill="none" xmlns="http://www.w3.org/2000/svg"><g id="free-icon-shopping-1162405 (1) 1" opacity=".2" clip-path="url(#clip0_236_165892)"><g id="Group" fill="#fff"><path id="Vector" d="M43.743.572c5.44 1.448 10.69 5.18 14.216 10.096l1.154 1.628 11.574.02 11.605.019 2.099-1.968c2.412-2.31 4.26-3.402 7.514-4.491 1.972-.685 2.91-.809 5.945-.804 3.222-.026 3.879.07 6.254.918 6.003 2.105 10.218 6.366 12.273 12.344.809 2.348.964 3.192 1.083 7.259l.149 4.63 6.381.01c3.722.006 6.631.136 6.975.325.343.188.749.845.904 1.502.156.626 2.004 17.959 4.066 38.45l3.785 37.324 7.601.012 7.602.013.005-41.07-.026-41.04-.811-1.753c-1.028-2.16-2.839-4.04-5.027-5.201l-1.656-.879-14.233-.18c-7.819-.138-14.263-.242-14.294-.274-.968-.908-1.343-1.597-1.341-2.473.002-1.282.848-2.188 2.287-2.436.564-.124 7.007-.145 14.327-.07l13.262.147 2.157.817c3.876 1.508 6.656 3.858 8.621 7.302 1.997 3.507 1.876.535 1.795 49.613l-.074 44.668-.722 2.001c-1.948 5.283-5.645 8.811-10.84 10.336-1.283.373-3.098.495-7.133.488-5.005-.008-5.474-.071-6.036-.635-.937-.94-.934-2.598.037-3.597.564-.563 1.127-.624 6.164-.772 5.318-.148 5.599-.179 7.321-1.052 3.005-1.527 5.482-4.683 6.05-7.747l.221-1.188-74.947-.124-74.947-.124-.001.845c-.002 1.376 1.65 4.507 3.15 6.01.749.752 2.155 1.756 3.092 2.195l1.72.816 58.336.253c45.137.2 58.493.347 58.993.629 1.25.722 1.466 2.693.432 3.786-.658.687-.752.687-10.668.67l-9.978-.016.155.688c.994 4.256 2.703 11.485 2.827 11.891.125.439.781.534 4.91.634 4.41.101 4.88.165 6.567.949 2.501 1.193 4 2.447 5.373 4.482 1.654 2.505 2.027 4.101 2.019 8.512-.005 3.441-.069 3.91-.633 4.472-.626.624-1.033.624-51.55.54l-50.955-.084-.593-.658c-.531-.595-.593-1.158-.556-4.63.006-3.316.132-4.223.73-5.754 1.381-3.47 4.232-6.249 7.675-7.401 1.534-.498 2.691-.621 6.163-.616l4.286.008 1.165-4.941c.63-2.689 1.355-5.659 1.575-6.566l.41-1.626-18.33-.03c-20.27-.034-19.957-.002-23.645-2.104-1.875-1.035-4.56-3.698-5.621-5.546C.228 116.799.073 115.767.088 106.79c.014-8.133.014-8.227.703-8.695.97-.687 2.503-.621 3.315.13.656.596.687.94.68 5.006l-.007 4.38 17.736-.034 17.736-.064 2.763-25.489 2.763-25.457.815-.718c.814-.687 1.002-.718 7.665-.707l6.85.011.19-1.344c.095-.72.603-5.473 1.143-10.54 1.209-11.884 1.209-11.822 1.93-12.54.563-.562 1.095-.592 7.132-.583l6.506.011.196-4.629c.098-2.815.384-5.192.667-6.161.283-.875.503-1.595.503-1.657 0-.031-4.004-.07-8.915-.077-4.91-.008-8.915.079-8.915.235 0 .125.217 1.22.465 2.41.59 2.784.582 7.508-.017 10.29-2.459 11.539-12.044 19.812-23.65 20.387-6.882.364-12.76-1.553-17.976-5.785-3.968-3.26-7.337-8.677-8.58-13.871-.745-3.192-.83-8.322-.169-11.105.252-1.032.41-1.907.347-1.97-.062-.063-.75.25-1.533.717-1.942 1.123-3.76 3.278-4.639 5.435l-.722 1.75-.212 33.72c-.211 32.938-.212 33.751-.807 34.188-1.003.718-2.535.653-3.41-.13-.5-.47-.528-2.348-.41-35.223L.38 23.93l1.13-2.344c2.354-4.876 6.77-8.278 11.589-8.927 1.251-.185 1.502-.341 2.317-1.591C18.334 6.473 23.783 2.447 29.48.705c1.815-.56 2.879-.652 7.352-.613 3.503.005 5.755.165 6.912.48zM30.346 5.774c-8.168 2.864-13.56 9.893-14.075 18.37-.225 3.753.365 6.725 2.08 10.169 2.556 5.29 6.773 8.863 12.65 10.812 3.126 1.038 8.412 1.046 11.605.02C51.9 42.156 57.92 33.69 57.373 24.335 56.917 16.61 52.642 10.16 45.734 6.8c-3.313-1.632-5.345-2.042-9.505-1.924-2.91.058-4.036.244-5.883.898zm63.115 5.015c-1.126.342-2.316.81-2.66 1.06-.564.436.03.469 6.13.51 8.351.014 9.352.297 9.348 2.643-.004 2.47-.223 2.502-11.578 2.67l-9.853.14-.723 2.19c-.566 1.625-.788 3.189-.918 6.16l-.194 4.003 14.795.025 14.796.024-.181-4.16c-.302-6.788-2.141-10.545-6.609-13.524-3.843-2.54-7.627-3.078-12.353-1.74zm24.041 27.097c-.005 2.784-.476 4.285-1.415 4.658-1.002.374-2.159.184-2.877-.505-.656-.627-.718-.94-.713-3.755l.005-3.065-14.702-.024-14.7-.025-.005 3.035c-.005 2.69-.1 3.096-.695 3.752-.658.718-1.847.935-2.91.527-.938-.377-1.404-1.88-1.4-4.663l.005-2.659-4.817-.008-4.817-.008-.19 1.314c-.095.75-.54 4.847-.985 9.163-.445 4.285-.858 8.194-.953 8.663l-.158.876 13.45.022 13.42.022.843.72.812.722 2.71 25.497c1.51 13.985 2.743 25.498 2.742 25.529.094.219 34.44.12 34.44-.099.001-.438-7.048-69.579-7.233-71.018l-.186-1.314-4.848-.008-4.818-.008-.004 2.659zM50.399 61.298c-.221 1.438-4.954 45.254-4.956 45.911 0 .406 2.94.474 24.71.51 23.336.038 24.712.009 24.713-.523.001-.688-4.587-44.612-4.804-45.99l-.154-1-19.676-.033-19.643-.032-.19 1.157zm3.04 72.731c-.82 3.502-1.482 6.441-1.482 6.566 0 .25 55.991.437 55.991.218 0-.188-2.795-12.11-2.951-12.642-.124-.282-5.41-.384-25.086-.417l-24.961-.041-1.512 6.316zM37.401 146.42c-2.848 1.278-4.322 3.372-4.703 6.687l-.222 1.782 47.264.078 47.264.078.003-1.564c.005-3.19-1.961-6.009-4.962-7.077-.906-.346-9.258-.422-42.258-.477-39.163-.096-41.196-.068-42.386.493z"/><path id="Vector_2" d="M44.126 15.618c-.75.345-.44-.162-4.824 7.86L35.8 29.912l-.464-.67c-.258-.37-1.006-1.571-1.677-2.703-1.34-2.217-1.935-2.703-3.15-2.705-.983-.001-1.915.874-1.917 1.797-.001.67 5.209 9.215 5.984 9.793.62.486 1.99.557 2.612.12.491-.322 9.726-17.174 9.935-18.12.286-1.268-1.626-2.425-2.997-1.805z"/><path id="Vector_3" d="M82.141 65.48c.719.595.75.751.835 6.131.057 3.035-.074 6.538-.263 7.757-1.866 11.978-17.635 14.798-23.655 4.247-1.31-2.286-1.526-3.882-1.515-10.888.011-6.663.011-6.694.763-7.287.846-.687 2.473-.778 3.347-.151.531.407.593 1.002.77 7.133.176 7.351.362 8.258 2.236 10.201 3.029 3.164 7.376 3.328 10.634.424 2.256-2.03 2.508-3.03 2.74-10.568.166-6.162.198-6.662.793-7.1.877-.655 2.44-.62 3.315.1z"/><path id="Vector_4" d="M35.038 62.68c1.532.878 1.842 2.443.745 3.817l-.627.813-12.637-.021-12.638-.021-.624-.814c-1.155-1.472-.683-3.223 1.039-3.877 1.252-.468 23.898-.368 24.742.103z"/><path id="Vector_5" d="M30.703 74.027c1.375.972 1.152 3.474-.414 4.191-.532.218-3.848.338-10.166.328-7.633-.013-9.54-.11-10.26-.487-1.437-.753-1.716-2.317-.619-3.723l.627-.812 10.104.016c8.351.014 10.166.08 10.728.487z"/></g></g><defs><clipPath id="clip0_236_165892"><path fill="#fff" transform="matrix(-1 -.00165 -.00165 1 160.418 .265)" d="M0 0h160.153v160.153H0z"/></clipPath></defs></svg>