<svg width="150" height="150" viewBox="0 0 198 162" fill="none" xmlns="http://www.w3.org/2000/svg"><g opacity=".2" clip-path="url(#clip0_236_165901)" fill="#fff"><path d="M149.997 6.214c5.421.635 10.302 4.504 12.402 9.828.888 2.26 1.023 3.528 3.683 38.112l2.752 35.779 1.215.17c4.404.6 10.745 3.418 14.979 6.7 4.235 3.28 8.533 9.336 10.443 14.637 1.247 3.511 1.973 10.518 1.517 14.347-.836 6.714-3.761 13.138-8.231 18.027l-2.422 2.704 2.875-.221c3.586-.276 5.476.367 7.55 2.425 1.957 1.99 2.58 4.234 2.87 10.448.204 4.117.135 5.174-.439 6.496l-.701 1.632.945 1.542c.862 1.437.991 2.141 1.422 7.743.431 5.602.411 6.317-.233 7.719-.764 1.787-1.801 2.957-3.557 4.068-1.218.77-3.867 1.012-81.923 7.015l-80.672 6.204-2.726-.767c-7.064-1.974-12.787-7.507-14.726-14.158-.402-1.321-1.45-13.488-3.387-38.66l-2.823-36.713.798-.85c.796-.888.87-.894 17.49-2.172l16.695-1.284-.443-5.752-.439-5.714-2.933-.037C26.829 95.37 13.875 86.185 8.68 71.895c-.67-1.865-.96-3.683-1.318-8.352-.377-5.38-.374-6.32.296-9.34 1.339-6.038 3.577-10.644 7.317-15.252 5.533-6.7 13.201-11.046 21.82-12.31l3.344-.482.902-2.437c1.112-3.128 2.781-5.36 5.407-7.366 3.939-3.008 1.52-2.709 54.482-6.744 26.034-1.965 48.118-3.513 49.066-3.398zm-98.632 14.46c-1.874 1.046-4.155 3.626-4.494 5.08-.115.46-.123.836-.046.867.04.035 1.575.443 3.373.868 10.38 2.583 19.07 10.067 23.299 20.11 5.694 13.463 1.98 29.64-9.067 39.394-2.672 2.384-7.596 5.28-10.814 6.429l-2.413.862 3.335 43.361c3.61 46.946 3.579 46.047 1.858 50.537-.474 1.163-1.354 2.922-2.026 3.95l-1.175 1.819 41.942-3.226 41.941-3.226-.482-6.274c-.431-5.602-.417-6.392.192-7.754l.638-1.477-.868-1.511c-1.243-2.008-2.194-10.952-1.533-14.083.815-4.045 3.657-6.18 8.659-6.602l3.099-.238-1.832-1.362c-11.593-8.576-16.149-23.854-11.104-37.391 4.008-10.903 14.092-19.004 25.681-20.722l3.27-.477-2.792-35.325c-2.629-32.708-2.876-35.431-3.571-36.655-1.212-2.086-3.226-3.847-5.352-4.623l-1.936-.753-47.992 3.691-47.992 3.691-1.798 1.04zm-20.49 13.974c-10.32 4.55-16.953 14.04-17.629 25.287-.477 7.964 2.91 15.855 9.254 21.642 6.742 6.093 14.022 8.426 22.992 7.323 6.808-.862 12.046-3.594 16.797-8.73 13.555-14.756 8.358-37.874-10.227-45.536-2.792-1.138-6.722-1.925-8.09-1.632-.626.16-1.456.112-1.884-.08-1.293-.69-8.125.361-11.213 1.726zm125.7 62.464c-5.16 1.787-8.593 4.042-12.015 7.912-2.726 3.14-4.892 7.214-5.863 11.196-.71 2.985-.785 3.967-.483 7.889.281 3.66.534 4.993 1.419 7.216 3.493 8.786 11.227 15.066 20.481 16.684 3.844.643 11.362-.273 14.85-1.819 3.993-1.81 6.406-3.648 9.647-7.429 6.723-7.843 8.22-17.688 4.155-27.068-1.641-3.744-3.56-6.226-7.142-9.332-3.663-3.174-7.76-5.15-12.371-5.999-3.427-.6-9.785-.224-12.678.75zM19.686 148.553c1.735 22.558 2.772 34.087 3.148 35.56 1.221 4.64 4.752 8.539 9.28 10.257 1.974.75 2.692.807 5.978.554 3.474-.267 3.916-.376 6.108-1.672 2.876-1.686 5.283-4.576 6.436-7.67l.844-2.207-2.596-35.227-2.632-35.187-14.565 1.12-14.566 1.12 2.565 33.352zm121.762 8.33c-.666 1.103.012 9.917.839 10.905.575.632 1.287.615 25.488-1.246 24.202-1.862 24.909-1.954 25.38-2.666.33-.589.37-2.02.106-5.456-.198-2.577-.526-4.881-.692-5.093-.874-1.098-2-1.086-26.233.853-23.672 1.895-24.417 1.99-24.888 2.703zm1.712 18.352c-.744.583-.758.885-.402 5.516.31 4.033.5 5.033 1.066 5.553.609.592 1.882.532 25.299-1.269 22.446-1.727 24.718-1.977 25.31-2.586.557-.568.577-1.284.244-5.616-.362-4.706-.422-5.002-1.247-5.464-.787-.466-3.78-.311-25.181 1.335-21.4 1.646-24.382 1.95-25.089 2.531z"/><path d="M143.386 27.723c1.247 1.069 1.276 3.396.118 4.462-.911.858-1.247.884-24.066 2.64L96.32 36.601l-.968-.864c-1.245-1.032-1.405-2.635-.463-4.06l.672-1.028 23.529-1.81c23.007-1.77 23.492-1.807 24.296-1.117zm1.014 16.114c1.308.876 1.635 3.18.566 4.427-.655.764-1.175.842-15.367 1.933-13.52 1.04-14.755 1.098-15.364.506-1.419-1.356-1.399-3.537.077-4.852.423-.371 4.186-.773 14.79-1.626 13.856-1.066 14.27-1.06 15.298-.388zm2.071 24.974c1.241.994 1.376 3.238.302 4.41l-.796.888-27.936 2.148-27.899 2.146-.968-.865c-1.324-1.1-1.456-2.818-.316-4.108l.825-1.003 27.973-2.151c27.6-2.123 27.936-2.149 28.815-1.465zm-15.755 17.404c1.307.876 1.623 3.03.644 4.459l-.641.95-28.525 2.307c-15.646 1.241-28.87 2.22-29.364 2.146-2.206-.356-3.315-3.051-1.997-4.956l.641-.95 29.123-2.353c29.013-2.307 29.088-2.313 30.119-1.603zm-6.013 17.068c1.293 1.178 1.376 3.238.184 4.344-.911.859-1.172.879-28.847 3.007-26.032 2.002-27.977 2.114-28.772 1.537-1.307-.876-1.652-2.916-.741-4.264l.706-1.068 28.31-2.178 28.31-2.177.85.799zm-3.028 16.312c.793.54 1.054 1.008 1.143 2.166.135 1.756-.681 2.87-2.448 3.344-.663.164-12.459 1.146-26.172 2.126l-24.994 1.809-.977-.976c-1.06-1.083-1.284-2.043-.707-3.327.796-1.865.018-1.73 27.279-3.864 25.546-1.965 25.844-1.988 26.876-1.278zm2.605 16.292c1.247 1.069 1.276 3.396.118 4.462-.911.859-1.21.882-27.204 2.881-14.416 1.109-26.525 1.927-26.87 1.841-.733-.244-1.839-1.925-1.916-2.933-.032-.411.247-1.184.652-1.778l.672-1.029 26.89-2.068c26.368-2.028 26.854-2.065 27.658-1.376zm-2.238 15.839c.27.092.761.617 1.146 1.226a3.3 3.3 0 01-.198 3.773c-.511.678-2.226.847-26.054 2.68l-25.509 1.961-.822-.913c-.49-.526-.884-1.247-.916-1.658-.077-1.008.759-2.838 1.445-3.192.727-.318 50.175-4.122 50.908-3.877zM51.232 45.112c4.184 1.183 6.333 5.652 4.687 9.691-2.177 5.344-9.63 5.857-12.542.874-1.866-3.136-1.04-7.263 1.837-9.38 1.597-1.146 4.294-1.684 6.018-1.185zm-3.31 5.49c-1.346 1.278-.198 3.688 1.717 3.54.868-.066 2.09-1.394 2.028-2.202-.026-.329-.341-.907-.735-1.328-.819-.87-2.055-.895-3.01-.01zm-4.805 8.346c11.886 10.16 12.439 10.69 12.522 11.767.064.837-.113 1.272-.7 1.859-.863.909-1.606 1.026-2.79.515-.467-.204-6.158-4.943-12.698-10.55-11.182-9.612-11.833-10.254-11.912-11.271-.108-1.406.601-2.364 1.989-2.711l1.153-.27 12.436 10.66zm-7.472 4.186c2.895.86 4.922 3.353 5.16 6.434.314 4.099-2.34 7.162-6.468 7.48-4.128.317-7.219-2.304-7.534-6.403-.223-2.902.946-5.31 3.3-6.784 1.178-.723 4.218-1.107 5.542-.727zm-3.453 5.592c-.718.838-.591 2.092.283 2.897.875.806 1.773.737 2.758-.152 1.403-1.311.354-3.608-1.59-3.459-.51.04-1.147.36-1.45.714zm137.354 56.049l-4.337 1.058.469 1.924 7.799-1.903.751 3.078-7.8 1.902.853 3.498-4.791 1.168-.853-3.497-2.623.64-.751-3.078 2.623-.64-.469-1.923-2.623.639-1.032-4.232 2.623-.639-2.866-11.752 9.128-2.226c2.309-.563 4.449-.245 6.421.954 1.996 1.193 3.266 2.908 3.812 5.147.546 2.238.211 4.309-1.005 6.211-1.198 1.873-2.974 3.097-5.329 3.671zm-2.798-11.471l-4.337 1.057 1.766 7.24 4.336-1.058c.98-.239 1.71-.787 2.193-1.646.505-.864.633-1.81.383-2.836-.25-1.025-.796-1.794-1.637-2.305-.824-.541-1.725-.691-2.704-.452z"/></g><defs><clipPath id="clip0_236_165901"><path fill="#fff" transform="scale(-1 1) rotate(4.398 -95.61 -2489.958)" d="M0 0h191.785v191.785H0z"/></clipPath></defs></svg>