<svg width="100" height="100" viewBox="0 0 123 191" fill="none" xmlns="http://www.w3.org/2000/svg"><g opacity=".18" clip-path="url(#clip0_236_154746)" fill="#fff"><path d="M63.628 7.468c-4.37.798-8.063 3.245-10.416 6.98-1.193 1.846-1.486 2.79-2.204 7.157l-.851 5.047-3.728-.303c-2.878-.228-4.204-.122-6.084.441-3.042.979-6.236 3.371-8.038 6.075-1.434 2.1-1.45 2.22-2.804 11.255-1.315 8.753-1.364 9.115-.67 10.029.835 1.097 1.824 1.355 3.06.703.795-.424.934-1.142 2.27-9.442 1.578-9.782 1.713-10.173 4.593-12.362 2.245-1.743 3.81-2.104 7.498-1.806l3.326.248-.614 4.505c-.899 6.598-2.115 5.9 13.976 8.091l13.234 1.803.971-.81c.92-.735 1.071-1.247 1.597-5.109l.587-4.304 26.147 3.562 26.147 3.562-.603 4.425c-.893 6.556-2.109 5.858 14.223 8.083 16.091 2.192 14.646 2.569 15.556-4.109l.592-4.344 2.735.372c3.58.488 5.994 1.718 7.696 3.958 2.601 3.468 2.835.55-3.823 49.425l-5.957 43.726-19.244 14.341c-21.164 15.801-19.515 14.222-23.898 22.639l-2.331 4.477-19.027-2.592c-17.86-2.433-19.033-2.552-19.73-1.95-1.016.844-1.2 2.499-.425 3.424.602.697 2.482 1.035 18.612 3.232 9.896 1.348 17.965 2.57 17.943 2.731-.016.121-1.303 2.65-2.846 5.554-2.994 5.738-3.223 6.813-1.637 7.807.865.569 2.711.247 16.26-2.66L141 198.043l7.668-5.757 7.633-5.803-1.693 12.43c-1.167 8.568-1.92 12.891-2.401 14.013-1.002 2.24-4.779 5.004-7.199 5.329-1.463.211-15.714-1.648-63.613-8.255-68.61-9.47-62.689-8.417-65.15-11.703-2.508-3.25-3.048 2.822 6.196-66.843 8.172-61.493 8.342-62.74 7.654-63.407-.976-.953-1.993-1.01-3.09-.175-.914.695-.958 1.016-9.398 63.579l-8.44 62.85.815 2.447c1.019 3.048 3.416 6.201 6.115 8.044l2.105 1.393 63.356 8.631 63.357 8.63 2.441-.773c3.38-1.056 6.249-3.164 8.251-6.129l1.649-2.479 2.285-15.873 2.285-15.873 23.001-17.558c26.658-20.338 25.619-19.332 26.54-26.09.477-3.5.466-4.321-.226-6.463-1.853-5.948-8.055-10.644-13.923-10.583-5.127.039-5.739.324-18.12 9.7l-11.553 8.711 5.65-41.474c5.589-41.03 5.655-41.513 5.177-44.324-.4-2.472-.784-3.261-2.8-5.912-2.015-2.651-2.673-3.233-4.948-4.28a20.778 20.778 0 00-5.557-1.617l-2.936-.4.513-4.97c.648-6.263-.042-9.02-3.138-12.76-2.668-3.273-5.411-4.794-9.474-5.347-5.832-.795-11.522 1.872-14.694 6.807-1.312 2.116-1.583 2.898-2.301 7.267l-.835 4.925-26.066-3.55-26.067-3.551.54-5.171c.6-5.9.177-8.212-2.345-11.956-2.145-3.201-5.466-5.293-9.588-6.018-2.04-.36-3.953-.457-5.048-.237zm7.631 6.243c2.075 1.307 3.482 3.015 4.323 5.26.642 1.603.578 2.373-.567 11.682l-1.238 9.992L63.68 39.27l-10.097-1.376 1.48-9.96c1.386-9.275 1.53-10.034 2.578-11.407 2.27-3.133 5.93-4.724 9.71-4.209 1.368.187 2.853.717 3.908 1.393zm82.374 11.59c1.725 1.178 3.427 3.417 4.095 5.434.474 1.334.346 2.874-.679 11.298l-1.211 9.791-10.096-1.375-10.097-1.376 1.452-9.758c1.584-10.724 1.781-11.27 4.712-13.535 3.53-2.756 8.306-2.925 11.824-.479zm48.514 102.854c1.741 1.057 3.564 3.313 4.283 5.255.263.773.384 2.592.302 4.097-.234 3.82-1.65 5.798-6.993 9.823l-4.113 3.128-6.145-8.131-6.19-8.095 4.347-3.341c2.377-1.807 4.864-3.517 5.511-3.757 2.932-1.075 6.121-.723 8.998 1.021zm-20.309 12.23l2.259 2.971-25.367 19.284c-13.941 10.598-25.568 19.257-25.77 19.229-.241-.032-1.444-1.426-2.655-3.066l-2.253-3.011 25.522-19.222c14.062-10.581 25.684-19.2 25.804-19.184.121.017 1.249 1.359 2.46 2.999zm7.644 10.055l2.259 2.971-25.367 19.284c-13.94 10.598-25.528 19.263-25.769 19.23-.523-.071-4.415-5.191-4.344-5.713.055-.403 50.359-38.825 50.762-38.77.12.016 1.249 1.358 2.459 2.998zm-54.174 43.672c-.218.094-2.258.635-4.58 1.138l-4.18.906-2.959-3.845-2.918-3.839 1.842-3.601c1.004-1.953 2.042-3.86 2.344-4.269.409-.6 1.115.233 5.616 6.296 2.838 3.828 5.018 7.075 4.835 7.214zm-16.488 3.736c-3.509.792-3.549.787-2.33-1.546.596-1.066 1.203-2.213 1.367-2.518.176-.386.735.018 1.847 1.481l1.569 2.016-2.453.567z"/><path d="M41.886 42.857c-1.783 1.355-1.14 4.761.951 5.046 1.167.159 2.61-1.12 2.797-2.487.187-1.368-.863-2.986-2.03-3.145-.442-.06-1.216.203-1.718.586zm-1.206 8.849c-.869.66-.986 1.218-3.545 20.004S34.54 91.064 35.2 91.933c.382.502 1.057.963 1.5 1.023.442.06 1.215-.203 1.718-.585.868-.66.986-1.218 3.545-20.003 2.559-18.786 2.595-19.355 1.935-20.223-.382-.503-1.057-.964-1.5-1.024-.442-.06-1.215.203-1.718.585zm10.945 13.496c-1.011.805-1.039 1.006-2.885 14.563-1.803 13.234-1.84 13.803-1.18 14.671.66.868 1.218.985 14.574 2.805 16.452 2.241 15.448 2.391 16.106-2.436.477-3.5.08-4.496-1.81-4.754-1.61-.219-2.546.637-2.798 2.487l-.18 1.328-10.66-1.453-10.66-1.452 1.451-10.66 1.453-10.66 10.056 1.37c9.534 1.3 10.102 1.336 10.97.675.504-.382.964-1.057 1.025-1.5.06-.442-.204-1.215-.586-1.718-.66-.868-1.218-.985-12.28-2.492l-11.625-1.584-.971.81z"/><path d="M74.087 78.67l-5.65 3.573-1.707-2.2c-1.772-2.33-3.206-2.935-4.531-1.928-1.503 1.107-1.12 2.51 1.55 6.07 2.014 2.651 2.812 3.416 3.697 3.536.925.126 2.642-.746 7.668-3.954 3.585-2.257 6.797-4.482 7.185-4.921 1.26-1.427.3-3.401-1.793-3.686-.402-.055-3.28 1.52-6.419 3.51zm17.811-.811c-1.016.845-1.201 2.5-.426 3.425.602.696 2.522 1.04 19.417 3.341 18.263 2.488 18.831 2.525 19.7 1.864.503-.382.963-1.057 1.024-1.5.06-.442-.204-1.215-.586-1.718-.66-.868-1.218-.985-19.521-3.478-17.78-2.422-18.912-2.536-19.608-1.934zm-1.589 11.666c-1.017.844-1.201 2.5-.426 3.424.596.737 3.165 1.128 28.588 4.591 30.733 4.187 29.717 4.13 30.051 1.677.351-2.575 1.742-2.263-29.313-6.493-26.75-3.644-28.204-3.801-28.9-3.2zm-44.893 21.254l-.967.483-1.89 13.878c-1.814 13.315-1.85 13.883-1.19 14.752.66.868 1.217.985 14.572 2.804 16.574 2.258 15.57 2.408 16.048-2.607.263-2.833.227-3.165-.68-4.026l-1.012-.999-1.2.697c-.882.454-1.332 1.048-1.555 2.083l-.323 1.472-10.66-1.452-10.62-1.447 1.425-10.459 1.425-10.459 10.056 1.37c9.534 1.299 10.102 1.336 10.97.675.504-.382.964-1.057 1.025-1.499.06-.443-.204-1.216-.586-1.719-.66-.868-1.218-.985-12.28-2.492-9.815-1.337-11.717-1.514-12.558-1.055z"/><path d="M68.747 123.586c-2.693 1.723-5.249 3.341-5.695 3.608-.72.476-.91.368-2.48-1.649-1.216-1.6-2.024-2.283-2.829-2.393-1.166-.159-2.755.977-2.903 2.063-.104.764 4.907 7.593 5.8 7.96 1.162.486 1.952.102 8.58-4.034 6.896-4.306 7.792-5.167 7.265-6.714-.924-2.543-2.14-2.34-7.738 1.159zm16.959-.271c-1.017.845-1.201 2.499-.426 3.424.602.697 2.522 1.04 19.417 3.342 18.262 2.488 18.831 2.524 19.699 1.864.503-.382.964-1.057 1.024-1.499.06-.443-.203-1.216-.585-1.719-.66-.868-1.218-.985-19.521-3.479-17.78-2.422-18.912-2.535-19.608-1.933zm-1.589 11.665c-1.017.845-1.201 2.5-.426 3.425.596.737 3.165 1.128 28.588 4.591 30.733 4.187 29.717 4.13 30.051 1.676.35-2.574 1.742-2.262-29.313-6.492-26.75-3.644-28.204-3.801-28.9-3.2zm-45.05 21.807c-.869.66-.986 1.218-2.805 14.573-1.82 13.355-1.856 13.924-1.196 14.792.66.869 1.218.986 14.573 2.805 13.356 1.819 13.924 1.856 14.793 1.196.868-.661.985-1.218 2.804-14.573 1.82-13.356 1.856-13.924 1.196-14.793-.66-.868-1.218-.985-14.573-2.804-13.355-1.82-13.924-1.856-14.792-1.196zm23.342 18.135l-1.452 10.66-10.66-1.452-10.66-1.452 1.452-10.66 1.452-10.66 10.66 1.452 10.66 1.452-1.452 10.66zm16.995-5.347c-1.017.845-1.201 2.5-.426 3.425.602.696 2.522 1.04 19.417 3.341 18.263 2.488 18.831 2.525 19.7 1.864.502-.382.963-1.057 1.023-1.499.061-.443-.203-1.216-.585-1.719-.66-.868-1.218-.985-19.52-3.478-17.78-2.422-18.913-2.536-19.61-1.934z"/></g><defs><clipPath id="clip0_236_154746"><path fill="#fff" transform="rotate(7.757 14.028 206.909)" d="M0 0h207.861v207.861H0z"/></clipPath></defs></svg>