<svg width="100" height="100" viewBox="0 0 150 209" fill="none" xmlns="http://www.w3.org/2000/svg"><g opacity=".18" clip-path="url(#clip0_236_154770)" fill="#fff"><path d="M186.426 16.404c7.761 2.685 13.956 10.013 15.325 18.196.282 1.638.212 4.723-.244 9.6l-.674 7.21-1.203.758c-1.391.915-1.961.948-3.407.117-1.568-.93-1.737-2.383-1.168-9.863.471-6.444.445-7.1-.42-9.488-1.692-4.73-5.149-8.275-9.893-10.156-2.098-.849-7.533-1.4-54.549-5.707l-52.2-4.747-2.569.936c-3.422 1.204-7.044 4.088-9.026 7.125l-1.58 2.465-2.604 25.534c-2.603 25.534-2.603 25.534-3.642 26.395-1.231 1.06-3.437.898-4.501-.29-.752-.81-.722-1.592 1.779-26.961 2.53-25.672 2.578-26.19 3.737-28.346 3.392-6.475 8.808-10.846 15.724-12.638l2.856-.735 52.886 4.855c44.508 4.115 53.263 5.02 55.373 5.74z"/><path d="M183.992 28.935c.91.52 2.194 1.685 2.899 2.535 2.179 2.773 2.352 4.182 1.638 11.823l-.645 6.906-1.203.759c-1.667 1.063-2.695.88-4.069-.729l-1.135-1.369.565-6.043c.508-5.439.486-6.138-.237-7.25-.762-1.16-.888-1.215-5.679-1.663l-4.878-.456-1.263 2.8c-1.725 4.018-2.832 5.613-4.747 7.002-3.74 2.742-1.609 2.767-36.314-.476l-31.296-2.925-1.936-1.182c-3.045-1.896-4.945-4.86-5.844-9.211l-.788-3.688-4.835-.451c-7.424-.694-6.404-3.69-9.373 26.686l-2.493 25.283-1.039.861c-1.274 1.057-3.354.95-4.462-.243-.79-.857-.746-1.332 1.634-26.8 2.266-24.26 2.522-26.064 3.405-27.593 1.147-2.026 3.087-3.674 5.346-4.551 1.446-.562 2.666-.578 8.969.01 6.259.585 7.416.78 7.835 1.43.309.42 1.103 3.107 1.798 5.915.98 3.967 1.502 5.366 2.387 6.145 1.124 1.02 1.426 1.048 31.297 3.839 29.827 2.787 30.173 2.82 31.466 2.026 1.014-.602 1.787-1.88 3.484-5.597 1.208-2.673 2.482-5.123 2.863-5.48 1.008-.994 14.338.339 16.65 1.687z"/><path d="M150.258 26.48c.552.617.934 1.654.878 2.258-.057.605-.624 1.553-1.281 2.058l-1.137.982-18.518-1.73c-18.087-1.69-18.561-1.735-19.599-2.746-1.441-1.354-1.231-3.599.436-4.662 1.207-.802 1.681-.757 19.768.933l18.518 1.73.935 1.176zm-44.389 34.692c9.433 2.492 16.876 11.374 17.625 21.067.359 4.083-.195 5.816-2.041 6.471-1.128.417-1.736.404-2.61-.026-1.333-.647-1.637-1.59-1.878-5.531-.238-3.985-1.33-6.743-3.908-9.902-2.626-3.119-5.134-4.703-9.006-5.674-1.573-.409-3.267-.915-3.808-1.183-1.29-.644-1.764-2.56-1.019-4.015.951-1.783 3.075-2.15 6.645-1.207zm-.669 14.611c4.335 2.539 6.183 8.85 3.261 11.234-1.278 1.1-1.934 1.126-3.467.286-.948-.568-1.276-1.252-1.865-4.268-.222-.891-.691-1.458-1.526-1.84-2.855-1.138-3.466-1.587-3.848-2.624-.541-1.662-.395-2.301.923-3.354 1.51-1.252 3.716-1.09 6.522.566zm-52.491 4.892c1.8.778 2.979 1.672 5.104 4.091l2.043 2.368 3.256-.827c9.489-2.292 17.846-.858 26.271 4.501 2.916 1.883 4.227 3.225 12.144 12.63l8.856 10.538 7.61 3.367c7.944 3.529 9.785 4.79 10.921 7.552.671 1.674.284 5.339-.74 6.985-.461.74-4.029 3.977-7.861 7.233l-7.08 5.87.752 2.204c2.143 6.427-.679 14.262-6.446 17.729-4.568 2.752-10.637 2.925-14.975.43l-2.27-1.344-7.032 5.83c-7.222 5.988-9.525 7.34-12.202 7.09-1.856-.174-4.497-1.727-5.66-3.272-.895-1.129-2.343-6.141-4.203-14.196l-.822-3.778-8.523-10.376c-9.18-11.265-10.693-13.714-12.34-20.312-.785-3.252-.834-4.127-.302-9.825.593-6.346 1.136-8.429 3.195-12.286l.954-1.826-1.944-2.49c-2.571-3.245-3.393-5.63-3.083-8.953.295-3.151 1.51-5.432 3.956-7.38 2.73-2.184 7.147-2.86 10.421-1.553zm-6.285 6.685c-1.207.801-1.471 1.3-1.613 2.81-.137 1.468.097 2.23 1.098 3.63l1.271 1.773 3.352-2.778 3.347-2.736-1.065-1.188c-2.286-2.565-4.2-3.048-6.39-1.511zm21.109 4.759c-6.762 1.066-12.701 4.517-16.899 9.829-2.72 3.491-4.127 6.886-4.842 11.74-.806 5.367-.504 8.661 1.305 13.533 1.322 3.563 1.975 4.495 8.971 13.03l7.545 9.196 10.376-8.523c10.096-8.331 10.375-8.523 11.96-8.244 2.056.366 3.28 2.179 2.68 3.952-.29.756-4.05 4.193-11.036 9.985l-10.58 8.852 1.58 6.853c.866 3.782 1.81 7.18 2.08 7.553.275.331.867.517 1.31.428.488-.086 12.078-9.496 25.766-20.845 20.863-17.296 24.942-20.878 24.893-21.753-.045-.919-.785-1.38-6.713-4.111l-6.681-3.062-5.463 4.41c-4.621 3.791-5.683 4.432-6.805 4.328-1.856-.174-2.983-1.629-2.802-3.572.125-1.338.665-1.984 4.874-5.553l4.732-4.043-7.765-9.173c-6.7-7.984-8.128-9.468-10.805-11.111-5.47-3.429-11.536-4.692-17.681-3.699zm28.369 67.791c.504.657 5.238.794 6.593.268 3.214-1.311 5.396-4.155 5.703-7.436.355-3.798.221-3.767-6.434 1.75-3.351 2.779-6.019 5.229-5.862 5.418z"/><path d="M179.441 117.25c.333.162.945.611 1.297 1.035.677.673.446 3.613-3.866 49.757-5.159 55.209-4.492 50.874-8.374 53.733-3.511 2.633-.172 2.771-56.287-2.473-50.85-4.751-50.936-4.759-52.794-5.847-2.312-1.348-3.917-3.284-4.743-5.625-.589-1.623-.534-3.141.555-14.796 1.166-12.475 1.262-13.032 2.15-13.69 1.31-.966 3.374-.686 4.43.589.822.991.837 1.297-.171 13.482l-1.036 12.487.986 1.094 1.026 1.14 50.504 4.72 50.504 4.719 1.149-1.112 1.149-1.112 4.497-48.13 4.502-48.173 1.369-1.135c1.368-1.135 1.946-1.255 3.153-.663zM13.064 135.884c1.545.711 1.93 1.705 1.943 4.841-.012 7.575 5.803 14.781 13.065 16.286 3.417.712 4.573 1.386 4.95 2.945.45 1.697-.732 3.633-2.322 3.876-1.68.278-5.98-.776-8.857-2.134-7.01-3.268-11.806-9.725-13.008-17.37-.634-3.934-.466-6.662.455-7.664.921-1.003 2.61-1.368 3.774-.78zm14.789 2.035c.305.464.714 1.678.884 2.652.36 2.211.794 2.687 2.873 3.273 1.906.57 2.92 1.84 2.762 3.524-.181 1.942-1.49 2.908-3.735 2.699-5.008-.468-8.768-4.956-8.344-9.967.13-1.382.465-2.178 1.027-2.604 1.168-.849 3.758-.607 4.533.423z"/><path d="M50.88 154.31l1.111 1.148-2.2 25.877-2.196 25.833.995 2.401c1.24 3.034 3.681 6.266 5.965 7.916 3.797 2.707 2.031 2.498 57.37 7.669 45.497 4.251 51.419 4.718 53.59 4.311 4.791-.946 9.034-3.946 11.565-8.194 1.297-2.23 1.384-2.701 2.419-11.443 1.03-8.7 1.122-9.214 2.109-9.992 1.416-1.174 3.574-.973 4.533.423.606.971.599 1.972-.131 9.785-.875 9.367-1.414 11.407-3.881 15.443-2.011 3.34-6.782 7.335-10.542 8.9-6.023 2.485-3.076 2.63-61.468-2.957l-52.564-5.043-2.67-1.251c-6.464-3.042-10.977-8.341-13.11-15.333-.74-2.333-.691-2.851 1.6-28.763l2.338-26.429 1.25-.798c1.62-1.024 2.526-.94 3.916.497zm104.504 13.03c1.991 1.057 2.38 3.881.76 5.384-.76.669-1.502.687-9.315-.043-7.985-.747-8.542-.842-9.2-1.731-.966-1.309-.686-3.373.589-4.43.948-.826 1.426-.824 8.686-.233 4.191.348 8.025.793 8.48 1.053z"/><path d="M153.972 182.449c1.991 1.057 2.381 3.88.76 5.383-.764.712-1.588.679-13.631-.447-12.043-1.125-12.859-1.245-13.478-2.086-.97-1.267-.721-3.464.549-4.477.992-.822 1.341-.833 13.004.17 6.565.57 12.337 1.24 12.796 1.457zM134.1 200.796c1.049 1.36.939 3.005-.266 4.242l-.917.959-19.079-1.782-19.08-1.783-.723-1.113c-.958-1.396-.745-3.205.443-4.269.995-.865.995-.865 19.902.901l18.907 1.767.813 1.078z"/></g><defs><clipPath id="clip0_236_154770"><path fill="#fff" transform="scale(-1 1) rotate(-5.338 103.374 2610.569)" d="M0 0h221.973v221.973H0z"/></clipPath></defs></svg>